<svg width="32" height="32" viewBox="0 0 32 32" fill="none" xmlns="http://www.w3.org/2000/svg">
<path d="M15.9688 8.0625C16.6578 8.0625 17.2163 7.50286 17.2163 6.8125C17.2163 6.12214 16.6578 5.5625 15.9688 5.5625C15.2797 5.5625 14.7212 6.12214 14.7212 6.8125C14.7212 7.50286 15.2797 8.0625 15.9688 8.0625Z" fill="#0764E3"/>
<path fill-rule="evenodd" clip-rule="evenodd" d="M28.6556 25.6582L31.7121 30.0332C31.9789 30.415 32.0115 30.9139 31.7967 31.3272C31.5818 31.7407 31.1553 32 30.6901 32H1.24758C0.782427 32 0.355823 31.7407 0.140992 31.3273C-0.0738382 30.9139 -0.0412144 30.415 0.225515 30.0332L3.28204 25.6582C3.2871 25.6509 3.29239 25.644 3.29769 25.637L3.30606 25.6259V12.125H1.24758C0.558552 12.125 1.75801e-05 11.5654 1.75801e-05 10.875V7.49998C1.75801e-05 6.99842 0.299183 6.54549 0.759971 6.34942L15.45 0.0994222C15.761 -0.0328903 16.1122 -0.0331403 16.4235 0.0986722L31.1759 6.34867C31.6376 6.54423 31.9376 6.99773 31.9376 7.49998V10.875C31.9376 11.5654 31.3791 12.125 30.6901 12.125H28.2573V20.1875C28.2573 20.8779 27.6988 21.4375 27.0098 21.4375C26.3207 21.4375 25.7622 20.8779 25.7622 20.1875V13.75C25.7622 12.8884 25.0626 12.1875 24.2027 12.1875C23.3429 12.1875 22.6433 12.8884 22.6433 13.75V25.125H27.6335C28.0406 25.125 28.4221 25.324 28.6556 25.6582ZM2.49514 8.32723V9.62498H29.4425V8.32861L15.9387 2.60755L2.49514 8.32723ZM20.1482 13.75V25.125H17.0293V13.75C17.0293 12.8884 17.7288 12.1875 18.5887 12.1875C19.4486 12.1875 20.1482 12.8884 20.1482 13.75ZM14.5341 25.125V13.75C14.5341 12.8884 13.8346 12.1875 12.9747 12.1875C12.1148 12.1875 11.4152 12.8884 11.4152 13.75V25.125H14.5341ZM8.9201 13.75V25.125H5.80119V13.75C5.80119 12.8884 6.50076 12.1875 7.36064 12.1875C8.22052 12.1875 8.9201 12.8884 8.9201 13.75ZM4.95366 27.625L3.64371 29.5H28.2939L26.984 27.625H4.95366Z" fill="#0764E3"/>
</svg>
