<svg width="1124" height="321" viewBox="0 0 1124 321" fill="none" xmlns="http://www.w3.org/2000/svg">
<path fill-rule="evenodd" clip-rule="evenodd" d="M1085.53 210.802V320.539C1093.28 319.919 1100.99 319.283 1108.71 318.637C1113.62 285.314 1117.45 250.786 1116.42 210.802H1085.53Z" fill="#6FCFF7"/>
<path fill-rule="evenodd" clip-rule="evenodd" d="M1104.1 107.871V0.0352783C1111.81 0.00974274 1108.94 0.124626 1116.57 0.0352783C1121.48 33.3587 1124.84 67.8871 1123.81 107.871H1104.1Z" fill="#6FCFF7"/>
<path fill-rule="evenodd" clip-rule="evenodd" d="M20.1825 107.871L20.1825 0.0352783C12.3641 0.00974274 15.279 0.124626 7.5359 0.0352783C2.55593 33.3587 -0.85539 67.8871 0.18831 107.871H20.1825Z" fill="#6FCFF7"/>
<path d="M521.793 249.449C522.207 253.113 522.587 258.215 523.406 263.247C524.224 268.287 528.345 270.31 533.106 268.349C541.076 265.066 545.827 258.622 549.273 251.258C552.324 244.742 554.598 237.868 557.331 231.199C559.568 225.735 561.463 220.286 560.448 214.202C560.016 211.606 559.866 208.878 560.154 206.273C560.435 203.734 559.277 202.757 557.198 202.227C546.691 199.557 536.233 200.036 525.809 202.739C524.199 203.157 523.825 204.095 523.764 205.745C523.585 210.648 523.079 215.538 522.743 220.437C522.655 221.702 522.681 222.979 522.726 224.249C522.835 227.333 523.204 230.425 523.069 233.495C522.857 238.332 522.317 243.153 521.793 249.449ZM599.093 210.28C599.173 210.267 599.253 210.255 599.334 210.243C599.397 209.055 599.31 207.836 599.556 206.687C600.129 203.996 598.891 202.694 596.382 202.364C591.282 201.692 586.18 200.668 581.066 200.591C576.33 200.522 571.546 201.31 566.846 202.095C564.572 202.477 561.61 203.293 561.63 206.179C561.675 212.736 561.478 219.398 563.957 225.674C566.17 231.276 568.832 236.718 570.751 242.412C573.227 249.759 576.141 256.636 581.711 262.396C584.45 265.227 587.37 267.26 590.909 268.593C595.096 270.169 599.087 268.313 599.686 263.9C600.579 257.325 601.064 250.655 601.109 244.021C601.159 236.936 599.238 229.891 600.66 222.738C600.914 221.457 600.45 220.026 600.268 218.668C599.894 215.869 599.486 213.076 599.093 210.28ZM623.935 197.51C618.102 197.46 612.327 197.813 606.899 200.232C603.004 201.968 601.794 203.998 602.155 208.206C602.341 210.392 602.656 212.567 602.872 214.752C603.728 223.395 606.18 231.347 612.186 238.025C613.689 239.698 614.65 242.099 615.199 244.326C616.418 249.279 617.329 254.316 618.165 259.351C619.215 265.669 624.64 268.878 628.101 273.476C628.479 273.979 629.399 274.135 630.099 274.334C634.871 275.686 639.68 272.493 641.574 266.908C646.722 251.729 645.897 235.684 648.492 220.132C649.151 216.189 648.923 212.104 649.199 208.089C649.525 203.367 649.409 203.001 645.017 201.178C638.278 198.383 631.171 197.558 623.935 197.51ZM499.806 196.945C491.826 197.598 484.104 198.456 476.847 201.855C474.552 202.928 473.597 204.37 473.917 207.013C474.926 215.333 475.661 223.684 476.589 232.014C477.631 241.355 478.546 250.72 479.957 260.007C480.662 264.648 481.791 269.358 485.775 272.706C489.319 275.684 494.071 275.35 496.962 271.759C498.051 270.402 499.072 268.944 500.37 267.808C503.13 265.389 504.357 262.344 505.267 258.865C507.651 249.758 508.027 240.188 514.976 232.329C520.45 226.138 520.293 217.369 521.014 209.344C521.543 203.451 520.196 201.033 514.402 199.501C509.645 198.244 504.68 197.768 499.806 196.945ZM733.77 192.4C730.853 193.419 727.846 194.248 725.028 195.499C719.745 197.846 714.536 200.372 709.384 202.991C708.538 203.421 707.719 204.658 707.596 205.613C706.868 211.253 709.369 216.1 711.655 221.017C712.876 223.647 714.351 226.376 714.654 229.174C715.544 237.467 718.213 245.22 721.102 252.93C722.868 257.648 725.397 261.572 730.498 263.775C738.077 267.049 742.153 266.021 745.581 258.49C748.308 252.503 750.727 246.362 752.967 240.177C754.861 234.948 756.201 229.521 757.981 224.247C759.318 220.283 761.213 216.495 762.414 212.497C764.658 205.018 764.327 204.813 756.896 201.845C751.717 199.776 746.718 197.268 741.58 195.092C739.153 194.065 736.59 193.359 733.77 192.4ZM416.504 207.158C415.826 205.903 415.416 203.794 414.211 203.149C408.634 200.164 402.807 197.642 397.125 194.844C391.513 192.082 386.175 192.571 380.779 195.537C377.424 197.382 373.86 198.861 370.359 200.436C367.347 201.79 364.201 202.885 361.308 204.448C360.424 204.927 359.496 206.777 359.758 207.654C361.403 213.142 363.366 218.538 365.256 223.953C365.615 224.984 366.193 225.942 366.547 226.977C369.702 236.221 372.736 245.507 376.024 254.705C376.967 257.341 378.428 259.854 380 262.192C381.745 264.785 384.413 266.316 387.612 265.555C393.518 264.151 398.836 261.684 401.123 255.483C403.178 249.911 405.671 244.392 406.828 238.625C408.488 230.348 410.427 222.295 414.386 214.754C415.501 212.628 415.731 210.043 416.504 207.158ZM357.033 208.029C356.171 206.332 355.842 204.335 354.799 203.849C347.477 200.433 340.079 197.145 332.557 194.186C327.469 192.185 322.474 193.172 317.7 195.827C314.591 197.557 311.28 198.932 308.025 200.391C304.761 201.854 301.368 203.062 298.22 204.732C297.335 205.202 296.589 206.947 296.684 208.03C296.956 211.111 297.546 214.189 298.3 217.198C298.842 219.355 299.351 221.851 300.766 223.383C302.738 225.519 303.928 227.789 304.605 230.486C305.207 232.88 305.78 235.284 306.506 237.643C308.988 245.704 311.554 253.606 318.116 259.706C322.578 263.855 326.986 265.689 332.76 263.043C333.67 262.627 334.677 262.376 335.667 262.184C339.457 261.45 341.656 259.001 342.613 255.505C343.866 250.925 345.028 246.306 345.92 241.644C347.259 234.641 348.465 227.752 352.307 221.398C354.695 217.446 355.499 212.551 357.033 208.029ZM766.988 207.824C767.452 213.151 769.07 218.12 771.622 222.887C773.289 226.002 774.837 229.3 775.685 232.702C777.274 239.082 778.297 245.602 779.592 252.056C780.749 257.826 783.556 262.049 789.976 262.894C791.152 263.049 792.335 263.386 793.437 263.83C796.85 265.204 799.701 264.19 802.408 262.048C807.717 257.846 811.838 252.784 813.956 246.308C815.49 241.616 816.833 236.863 818.342 232.162C819.088 229.837 819.45 227.05 820.991 225.4C823.467 222.748 824.939 220.061 825.131 216.465C825.248 214.296 825.855 212.141 826.34 210.003C827.255 205.971 827.046 205.262 823.317 203.559C816.567 200.476 809.781 197.465 802.962 194.535C797.273 192.09 791.8 193.287 786.43 195.778C781.011 198.292 775.621 200.891 770.075 203.102C767.656 204.067 766.647 205.335 766.988 207.824ZM470.569 208.123C471.319 205.733 470.245 204.382 468.097 203.133C465.838 201.816 463.953 199.869 461.89 198.218C460.965 197.479 460.103 196.504 459.036 196.121C452.612 193.804 446.166 194.67 439.809 196.428C436.744 197.276 433.823 198.626 430.783 199.579C427.205 200.703 423.519 201.503 419.992 202.755C419.03 203.095 417.808 204.576 417.836 205.502C418.029 211.982 418.435 218.461 418.938 224.928C419.318 229.818 420.033 234.681 420.436 239.568C421.287 249.846 421.825 260.156 422.914 270.408C423.393 274.918 425.501 278.913 430.583 280.103C436.082 281.39 445.87 277.614 448.528 272.572C453.53 263.082 457.165 253.053 458.94 242.408C459.305 240.22 459.903 237.787 461.211 236.085C467.576 227.805 470.036 218.325 470.569 208.123ZM672.688 194.788C667.13 194.732 664.284 195.662 661.866 197.739C659.382 199.876 656.692 201.776 654.173 203.877C653.472 204.462 652.535 205.439 652.599 206.156C653.333 214.256 653.735 222.507 658.177 229.689C661.505 235.068 664.18 240.362 665.282 246.893C666.54 254.346 670.033 261.439 672.672 268.647C675.219 275.599 680.988 278.671 687.731 280.099C693.855 281.395 698.364 278.555 699.92 272.614C700.821 269.18 701.514 265.632 701.767 262.099C702.904 246.174 702.899 230.175 704.97 214.31C705.229 212.317 705.204 210.29 705.421 208.291C705.889 203.944 705.572 203.359 701.471 201.787C700.616 201.459 699.732 201.189 698.841 200.97C694.649 199.941 690.085 199.649 686.348 197.747C681.743 195.404 677.022 195.266 672.688 194.788ZM765.152 203.615C766.769 202.896 768.672 202.077 770.552 201.213C775.399 198.987 780.282 196.833 785.069 194.487C793.134 190.534 800.8 190.289 808.549 195.595C811.5 197.616 815.301 198.411 818.715 199.765C819.997 200.274 821.294 200.75 822.561 201.295C828.749 203.955 829.29 205.019 827.836 211.383C827.552 212.631 827.321 213.896 827.159 215.164C826.613 219.457 826.063 223.649 822.197 226.633C821.217 227.39 821.066 229.242 820.598 230.612C818.12 237.87 815.94 245.243 813.109 252.36C810.989 257.692 806.442 261.254 801.899 264.604C801.035 265.243 799.967 265.727 798.919 265.989C790.812 267.998 779.99 261.608 778.116 253.522C776.548 246.752 775.41 239.885 773.92 233.097C773.437 230.893 772.512 228.774 771.667 226.663C769.773 221.926 767.804 217.218 765.858 212.502C765.625 211.937 765.352 211.389 764.968 210.551C760.584 223.297 756.387 235.73 752.007 248.098C750.575 252.143 748.815 256.093 746.942 259.961C743.262 267.571 737.884 268.902 730.117 265.664C722.645 262.548 720.021 256.273 717.963 249.638C715.803 242.679 714.7 235.402 712.667 228.399C711.436 224.16 709.313 220.177 707.381 215.577C706.927 216.481 706.673 216.772 706.639 217.085C705.273 229.709 704.178 242.335 704.067 255.061C704.016 260.953 703.039 266.919 701.766 272.698C699.947 280.948 694.2 284.132 686.025 281.999C678.964 280.156 673.454 276.376 670.89 269.262C668.316 262.119 664.9 255.106 663.597 247.732C662.449 241.241 659.816 235.894 656.452 230.543C653.201 225.371 652.392 219.419 651.509 213.526C651.457 213.175 651.327 212.838 651.011 211.674C650.782 213.164 650.633 213.883 650.568 214.61C650.496 215.43 650.559 216.263 650.462 217.078C649.966 221.242 649.37 225.395 648.94 229.566C648.555 233.291 648.594 237.072 648.002 240.76C646.542 249.862 645.235 259.021 643.081 267.97C641.332 275.239 634.667 278.514 628.477 276.122C628.05 275.958 627.477 275.878 627.238 275.562C623.496 270.595 617.683 267.09 616.503 260.304C615.614 255.176 614.541 250.08 613.487 244.983C613.23 243.744 612.971 242.396 612.293 241.374C610.52 238.711 608.298 236.328 606.665 233.591C605.048 230.884 603.931 227.882 601.865 224.974C601.772 227.039 601.512 229.114 601.617 231.171C601.956 237.842 602.734 244.504 602.74 251.17C602.746 255.703 601.986 260.282 601.125 264.757C600.122 269.974 595.291 272.258 590.335 270.374C581.747 267.107 576.595 260.356 572.951 252.576C569.236 244.644 566.421 236.299 563.198 228.14C562.837 227.226 562.399 226.341 561.758 224.911C561.153 226.03 560.726 226.66 560.454 227.35C557.267 235.421 554.389 243.627 550.857 251.547C547.184 259.78 542.017 266.917 533.048 270.357C528.209 272.214 523.593 270.297 522.412 265.308C521.346 260.804 520.687 256.109 520.636 251.489C520.567 245.283 521.297 239.072 521.603 232.858C521.723 230.424 521.622 227.978 521.622 225.538C521.288 225.514 520.955 225.49 520.62 225.467C520.377 225.987 520.175 226.533 519.881 227.026C517.415 231.176 514.871 235.28 512.483 239.474C511.424 241.334 510.348 243.288 509.839 245.335C508.32 251.449 507.169 257.655 505.656 263.769C505.305 265.186 504.193 266.481 503.228 267.669C501.61 269.661 499.746 271.453 498.136 273.45C494.825 277.557 489.08 278.141 484.932 274.835C480.638 271.412 479.14 266.534 478.382 261.582C476.918 252.017 475.977 242.373 474.85 232.758C474.16 226.878 473.533 220.993 472.852 215.112C472.816 214.794 472.547 214.5 472.028 213.513C471.52 215.963 471.063 217.748 470.789 219.561C469.847 225.803 466.803 231.063 463.357 236.225C462.036 238.207 461.014 240.622 460.655 242.961C458.965 253.935 455.46 264.396 449.849 273.83C446.011 280.288 438.964 283.036 431.261 282.491C426.428 282.15 423.115 278.964 422.146 274.467C420.689 267.701 419.868 260.786 419.072 253.902C418.644 250.188 418.81 246.404 418.747 242.652C418.653 237.09 419.023 231.526 417.301 226.054C416.636 223.942 416.997 221.513 416.868 219.23C416.815 218.292 416.701 217.355 416.614 216.417C416.261 216.335 415.909 216.254 415.556 216.172C413.824 220.694 411.29 225.085 410.527 229.763C408.935 239.526 406.08 248.813 401.997 257.751C399.154 263.97 393.378 266.424 387.147 267.415C382.217 268.197 378.933 264.953 376.941 260.878C374.449 255.787 372.197 250.551 370.265 245.226C368.177 239.474 366.703 233.505 364.722 227.711C363.217 223.313 361.322 219.048 359.638 214.71C359.198 213.577 358.9 212.389 357.9 211.261C357.495 212.705 357.172 214.176 356.669 215.585C355.837 217.908 355.308 220.487 353.912 222.437C349.426 228.707 348.854 236.046 347.43 243.2C346.522 247.764 345.427 252.309 344.092 256.765C343.004 260.395 340.49 262.851 336.64 263.814C334.319 264.395 332.047 265.168 329.74 265.803C326.42 266.718 323.439 266.121 320.597 264.094C312.708 258.47 308.365 250.6 305.771 241.572C304.863 238.406 303.943 235.242 303.111 232.058C302.366 229.204 301.438 226.589 299.173 224.391C297.916 223.171 297.292 221.088 296.873 219.282C296.028 215.636 295.646 211.885 294.824 208.233C294.316 205.983 294.939 204.378 296.89 203.429C300.103 201.868 303.429 200.533 306.681 199.048C310.174 197.452 313.711 195.927 317.099 194.131C322.535 191.249 328.163 190.451 333.875 192.771C340.091 195.295 346.128 198.247 352.25 200.996C354.212 201.877 356.197 202.705 358.648 203.763C365.49 200.637 373.063 197.414 380.412 193.748C386.494 190.716 392.308 190.498 398.394 193.539C403.977 196.328 409.667 198.91 415.345 201.505C416.013 201.812 417.146 201.971 417.656 201.619C422.166 198.506 427.522 198.284 432.586 197.029C434.696 196.506 436.675 195.455 438.712 194.643C439.552 194.309 440.372 193.741 441.232 193.675C445.813 193.325 450.402 192.953 454.993 192.884C458.371 192.831 461.224 194.284 463.426 196.917C464.128 197.757 464.903 198.578 465.784 199.22C468.952 201.53 471.489 203.284 476.058 200.342C480.39 197.552 486.193 196.544 491.496 195.825C499.065 194.801 506.814 194.613 514.217 197.144C516.662 197.98 518.77 199.754 521.108 200.954C521.926 201.374 523.092 201.729 523.897 201.478C534.894 198.047 545.977 197.743 557.16 200.364C558.221 200.613 559.18 201.293 560.241 201.534C561.139 201.736 562.166 201.786 563.053 201.568C565.806 200.892 568.475 199.696 571.259 199.348C580.847 198.151 590.375 198.306 599.639 201.587C600.275 201.813 601.434 201.768 601.807 201.36C605.437 197.386 610.363 196.267 615.287 195.746C625.263 194.691 635.187 195.131 644.699 198.794C646.398 199.449 648.134 200.28 649.495 201.443C650.96 202.694 652.144 202.87 653.607 201.734C655.767 200.054 658.079 198.528 660.043 196.646C662.343 194.443 664.886 192.849 668.075 192.904C672.758 192.984 677.435 193.372 682.113 193.647C682.567 193.674 683.117 193.695 683.449 193.944C688.019 197.37 693.68 197.293 698.862 198.753C700.624 199.25 702.557 199.662 703.981 200.696C705.937 202.116 707.691 201.979 709.599 201.067C714.159 198.887 718.806 196.855 723.213 194.396C730.808 190.154 738.002 190.148 745.218 195.262C747.122 196.612 749.534 197.271 751.74 198.18C756.217 200.022 760.714 201.819 765.152 203.615Z" fill="#247DA3"/>
<path d="M218.303 199.814C218.582 196.854 218.841 194.105 219.101 191.35C215.897 190.519 214.378 191.179 212.635 193.987C214.505 195.91 216.324 197.779 218.303 199.814ZM262.199 195.305C258.464 192.638 251.752 192.511 248.77 195.077C248.218 195.553 248.158 197.214 248.55 197.993C249.052 198.991 250.576 200.51 251.078 200.317C254.779 198.896 258.334 197.103 262.199 195.305ZM165.505 187.703C159.252 186.197 153.831 186.931 148.268 187.976C150.443 191.361 152.465 194.507 154.544 197.743C158.012 194.566 161.464 191.404 165.505 187.703ZM67.3993 177.106C70.1502 180.81 72.5835 184.087 74.9924 187.329C78.9394 184.624 82.934 181.885 87.4985 178.756C80.597 176.742 74.355 175.902 67.3993 177.106ZM74.8154 190.305C71.6208 186.227 68.4505 182.031 65.1132 177.971C63.0595 175.474 62.1145 175.704 59.3404 177.506C57.3442 178.805 55.0116 179.79 52.6912 180.345C50.3088 180.916 47.7593 180.9 45.2807 180.94C43.5246 180.97 42.8629 181.617 42.7832 183.366C42.5165 189.211 41.9245 195.045 41.8294 200.89C41.7608 205.068 42.2167 209.262 42.5851 213.435C42.771 215.545 44.0093 216.698 46.2356 217.26C61.9275 221.209 77.6182 225.174 93.2293 229.422C96.9052 230.422 99.2301 229.187 101.442 226.76C107.283 220.351 110.411 212.682 112.462 204.37C114.617 195.646 111.307 188.972 105.273 183.188C99.6948 177.843 93.6874 177.195 87.223 181.366C82.7957 184.222 78.6562 187.517 74.8154 190.305ZM154.126 202.179L153.236 201.794C152.5 199.95 151.779 198.101 151.024 196.266C150.54 195.088 150.186 193.806 149.467 192.784C142.489 182.874 126.915 181.784 118.808 190.726C117.781 191.86 116.987 193.862 117.184 195.316C118.171 202.64 119.075 210.028 120.893 217.171C122.273 222.595 124.735 227.803 127.177 232.889C128.861 236.398 131.905 238.614 136.075 239.047C149.903 240.481 163.734 241.906 177.538 243.543C181.133 243.97 183.474 242.848 185.404 239.937C192.177 229.722 196.077 218.543 197.184 206.38C197.582 202.008 196.436 198.171 193.855 194.533C187.677 185.827 179.04 183.298 169.828 188.688C164.751 191.66 160.449 195.955 155.861 199.729C155.114 200.343 154.697 201.352 154.126 202.179ZM247.02 208.187C247.334 206.167 247.674 204.678 247.768 203.174C247.858 201.74 248.236 199.903 247.53 198.924C245.912 196.681 244.052 194.085 241.664 193.039C238.072 191.464 233.968 190.48 230.039 190.332C220.805 189.984 219.482 191.722 220.355 200.912C220.437 201.769 219.974 202.677 219.763 203.563C218.984 203.035 218.108 202.606 217.443 201.962C215.083 199.673 212.901 197.192 210.441 195.02C208.879 193.641 206.866 192.959 204.839 194.278C202.739 195.646 200.761 197.154 200.678 200.011C200.529 205.105 201.137 209.929 203.908 214.486C206.695 219.069 209.237 223.789 209.301 229.519C209.342 233.12 210.074 236.818 211.131 240.281C214.342 250.809 218.369 254.208 228.924 254.425C242.369 254.704 255.81 255.157 269.249 255.627C277.712 255.924 278.833 255.242 281.532 247.263C281.854 246.31 282.118 245.339 282.37 244.365C283.471 240.119 284.443 235.835 285.691 231.631C286.414 229.195 287.283 226.717 288.582 224.552C294.003 215.514 293.757 209.239 287.61 200.569C283.95 195.407 279.104 193.289 273.005 194.852C267.417 196.285 261.94 198.16 256.452 199.952C252.563 201.221 248.79 202.729 248.265 207.604C248.259 207.649 248.115 207.679 247.02 208.187ZM199.305 209.03C197.579 215.043 196.388 220.891 194.2 226.344C192.104 231.565 189.102 236.452 186.253 241.345C184.617 244.154 182.101 245.231 178.55 244.822C165.738 243.351 152.903 241.989 140.044 241.017C131.689 240.387 126.173 236.64 122.945 228.959C119.687 221.208 117.818 213.148 116.457 204.923C116.123 202.905 115.771 200.887 115.45 199.01C114.152 203.812 113.029 208.659 111.516 213.382C109.731 218.955 106.502 223.752 102.502 228.02C99.863 230.834 97.069 231.759 92.9106 230.607C77.2143 226.258 61.3819 222.387 45.5794 218.415C43.0676 217.784 41.3525 216.522 40.9685 213.966C40.5358 211.084 40.008 208.16 40.081 205.268C40.2824 197.402 40.808 189.545 41.1345 181.684C41.1997 180.096 41.9444 179.649 43.3874 179.654C45.7841 179.663 48.1842 179.629 50.5766 179.503C53.3795 179.354 55.9112 178.648 58.1686 176.708C60.1017 175.046 62.421 173.717 65.2327 175.239C65.7218 175.502 66.5086 175.342 67.1315 175.23C74.604 173.889 81.7998 175.27 88.947 177.311C90.0723 177.632 91.3172 177.903 92.4525 177.762C98.9202 176.961 104.062 179.409 108.085 184.186C110.48 187.03 112.427 190.248 114.648 193.398C115.205 192.657 115.861 191.701 116.601 190.814C122.362 183.908 131.99 181.577 141.289 185.103C144.19 186.204 146.964 186.29 149.932 185.876C156.066 185.023 162.206 184.344 168.209 186.76C168.892 187.036 169.902 186.994 170.592 186.705C182.952 181.533 191.311 187.458 196.688 196.003C197.161 196.756 197.681 197.48 198.417 198.567C199.193 197.649 199.773 196.998 200.314 196.318C202.537 193.519 205.232 192.073 208.992 192.748C209.926 192.916 211.286 192.247 212.053 191.539C214.282 189.479 216.734 188.956 219.691 189.385C221.741 189.68 223.897 189.602 225.964 189.353C232.982 188.501 239.541 189.406 245.436 193.617C245.973 194 247.188 193.97 247.811 193.63C253.558 190.496 259.029 190.648 264.405 194.526C265.065 195.001 266.266 194.912 267.192 194.827C271.201 194.456 275.2 193.687 279.202 193.687C281.154 193.688 283.497 194.609 284.99 195.887C291.726 201.658 295.502 208.786 293.829 217.941C293.602 219.178 293.245 220.548 292.497 221.509C287.745 227.615 286.666 235.027 284.683 242.15C283.612 245.997 282.162 249.772 280.526 253.42C279.411 255.905 277.284 257.006 274.258 256.906C260.253 256.446 246.24 256.241 232.231 255.86C229.104 255.774 225.973 255.445 222.868 255.045C217.301 254.327 213.839 250.845 211.448 246.089C208.592 240.409 207.595 234.249 207.201 228.033C206.997 224.804 206.071 221.984 204.583 219.211C202.789 215.872 201.089 212.482 199.305 209.03Z" fill="#247DA3"/>
<path d="M904.234 191.239C904.627 194.037 904.994 196.648 905.309 198.894C907.139 197.145 908.99 195.376 910.845 193.603C908.263 190.78 907.493 190.483 904.234 191.239ZM861.435 195.258C865.199 197.009 868.863 198.81 872.644 200.324C873.017 200.472 874.328 198.974 874.791 198.039C875.203 197.21 875.507 195.714 875.056 195.179C872.683 192.356 864.453 192.429 861.435 195.258ZM957.945 187.617C961.936 191.282 965.374 194.438 968.823 197.605C970.982 194.281 973.014 191.151 975.188 187.802C969.575 186.9 964.141 185.989 957.945 187.617ZM1056.17 176.828C1049.16 175.98 1042.79 176.331 1036.11 178.778C1040.52 181.801 1044.41 184.47 1048.36 187.177C1050.81 183.933 1053.26 180.679 1056.17 176.828ZM1048.64 190.092C1044.21 186.974 1039.51 183.507 1034.63 180.311C1031.84 178.485 1028.65 178.144 1025.33 178.979C1019.28 180.503 1011.67 188.7 1010.66 194.869C1009.7 200.762 1011.1 206.324 1013.15 211.762C1015.45 217.895 1018.45 223.643 1023.48 228.08C1025.04 229.455 1026.62 230.135 1028.98 229.511C1044.98 225.271 1061.03 221.18 1077.09 217.176C1079.2 216.65 1080.43 215.613 1080.74 213.655C1081.21 210.777 1081.76 207.851 1081.68 204.964C1081.48 198.02 1080.79 191.089 1080.58 184.145C1080.51 181.511 1079.67 180.802 1077.07 180.749C1072.15 180.65 1067.09 180.805 1063.12 176.85C1061.65 175.38 1059.92 175.619 1058.47 177.561C1055.21 181.916 1051.77 186.131 1048.64 190.092ZM970.2 201.523C969.893 201.67 969.588 201.817 969.281 201.964C968.623 201.094 968.036 200.156 967.293 199.365C962.676 194.445 957.68 190.015 951.324 187.37C939.862 182.603 925.848 191.501 926.302 203.842C926.54 210.319 927.903 216.957 929.985 223.112C932.041 229.182 935.552 234.787 938.614 240.494C939.866 242.827 941.981 243.91 944.866 243.471C947.957 243.001 951.106 242.932 954.221 242.59C965.3 241.376 976.37 240.078 987.454 238.904C991.526 238.471 994.199 236.156 996.208 232.915C997.361 231.052 998.392 229.088 999.235 227.069C1003.55 216.737 1005.32 205.823 1006.46 194.788C1006.56 193.801 1006.22 192.518 1005.61 191.748C1001.13 186.124 995.189 183.683 988.054 184.711C980.59 185.786 974.593 188.993 972.152 196.759C971.638 198.39 970.857 199.937 970.2 201.523ZM876.363 207.424C876.003 207.514 875.646 207.603 875.287 207.692C874.998 206.957 874.806 206.165 874.401 205.5C873.687 204.329 873.098 202.737 872.013 202.19C864.602 198.449 856.838 195.613 848.57 194.401C844.051 193.738 840.201 195.153 837.229 198.683C834.174 202.313 831.752 206.255 831.035 211.045C830.504 214.588 830.576 218.208 832.719 221.101C836.974 226.843 838.182 233.578 840.007 240.182C841.218 244.555 842.844 248.853 844.743 252.974C845.316 254.217 847.448 255.531 848.839 255.502C865.054 255.184 881.264 254.63 897.475 254.104C903.762 253.899 908.177 250.777 910.394 245.029C911.832 241.304 913.195 237.402 913.618 233.475C914.362 226.579 915.519 219.962 919.527 214.088C922.332 209.979 922.952 205.301 922.885 200.449C922.841 197.242 920.806 195.506 918.386 194.058C916.07 192.673 913.963 193.801 912.329 195.27C909.954 197.405 907.938 199.927 905.686 202.206C905.118 202.782 904.241 203.058 903.505 203.472C903.304 202.731 902.944 201.994 902.93 201.25C902.884 198.972 903.11 196.681 902.966 194.411C902.84 192.407 901.788 190.926 899.546 190.772C896.252 190.545 892.901 189.915 889.67 190.285C883.709 190.967 878.359 193.157 875.698 199.117C875.243 200.133 875.41 201.494 875.528 202.672C875.685 204.267 876.074 205.842 876.363 207.424ZM924.792 198.632C926.628 196.105 928.145 193.69 929.983 191.546C935.703 184.873 943.109 183.111 951.444 186.005C952.936 186.524 954.872 186.573 956.379 186.116C962.041 184.399 967.703 184.933 973.37 185.718C976.44 186.142 979.268 185.953 982.28 184.939C991.035 181.99 999.215 182.87 1005.95 189.825C1007.16 191.074 1007.93 192.736 1008.56 193.69C1010.88 190.432 1013.23 186.537 1016.18 183.16C1019.86 178.932 1024.72 177.213 1030.52 177.508C1033.45 177.656 1036.45 176.578 1039.39 175.925C1044.74 174.739 1050.08 174.091 1055.56 174.993C1056.75 175.19 1058.08 174.53 1059.29 174.702C1061.13 174.963 1063.39 175.083 1064.63 176.19C1067.66 178.889 1071.12 179.373 1074.87 179.459C1081.76 179.619 1082.08 179.622 1082.41 186.441C1082.84 195.003 1082.92 203.598 1082.7 212.168C1082.59 216.344 1080.87 217.435 1076.73 218.478C1061.21 222.399 1045.67 226.267 1030.23 230.519C1026.21 231.627 1023.47 230.645 1020.88 227.938C1014.44 221.226 1011 213.057 1009.19 204.106C1008.88 202.594 1008.59 201.08 1007.82 199.556C1007.11 203.595 1006.69 207.71 1005.63 211.653C1004.03 217.548 1002.15 223.38 1000.1 229.135C997.402 236.69 991.778 240.21 983.752 240.847C970.624 241.891 957.523 243.281 944.429 244.707C941.496 245.026 939.482 244.122 937.703 241.981C933.045 236.373 930.157 229.851 927.958 223.035C926.48 218.449 925.493 213.705 924.089 208.274C921.427 215.852 915.91 221.457 915.882 229.666C915.862 235.755 914.324 241.816 911.207 247.278C908.518 251.989 904.596 254.868 899.017 255.057C881.983 255.636 864.948 256.242 847.909 256.583C846.368 256.614 844.358 255.156 843.307 253.816C839.685 249.199 838.967 243.416 837.585 237.939C836.15 232.251 834.551 226.749 831.166 221.727C827.978 216.998 828.603 211.592 830.551 206.409C831.03 205.133 831.696 203.908 832.414 202.745C837.977 193.724 843.253 191.538 853.576 194.15C856.342 194.85 858.52 194.883 861.199 193.138C865.472 190.353 870.29 190.751 874.894 193.105C875.746 193.542 877.22 193.999 877.778 193.593C884.641 188.603 892.269 188.281 900.241 189.572C901.119 189.714 902.091 189.667 902.953 189.449C906.259 188.609 909.13 189.11 911.553 191.675C912.066 192.22 913.05 192.844 913.65 192.708C919.034 191.488 922.211 194.321 924.792 198.632Z" fill="#247DA3"/>
<path d="M484.481 153.88C487.27 153.498 492.491 152.994 497.619 152.01C501.46 151.274 502.211 149.89 502.039 146.008C502.024 145.645 501.969 145.263 502.054 144.919C503.811 137.857 501.175 131.833 497.622 125.989C496.829 124.684 496.045 123.261 495.743 121.794C494.546 115.982 493.097 110.169 492.563 104.284C491.581 93.4787 483.413 91.2966 475.072 92.0602C470.938 92.4393 468.275 95.8256 466.632 99.3382C464.513 103.867 462.643 108.59 461.383 113.413C459.862 119.238 459.077 125.231 455.703 130.462C455.007 131.54 454.671 133.102 454.777 134.392C455.131 138.665 455.653 142.931 456.334 147.166C456.666 149.24 458.007 150.519 460.379 150.465C461.459 150.44 462.661 150.521 463.616 150.964C469.494 153.688 475.781 153.528 484.481 153.88ZM641.852 153.851C650.83 153.555 657.3 153.669 663.331 150.83C664.044 150.494 664.96 150.409 665.761 150.47C668.674 150.693 670.042 149.046 670.48 146.539C671.016 143.481 671.335 140.383 671.691 137.297C672.09 133.834 671.279 130.72 669.58 127.593C668.13 124.929 667.235 121.878 666.585 118.892C665.045 111.812 663.412 104.778 659.573 98.5175C655.896 92.5184 651.334 90.7934 645.183 92.1591C638.824 93.5699 634.961 96.7496 634.231 103.582C633.151 113.666 631.287 123.519 625.803 132.481C623.364 136.468 623.74 141.32 624.475 146.079C625.08 150.012 625.366 151.376 629.346 152.108C634.301 153.019 639.335 153.511 641.852 153.851ZM728.008 136.367C728.482 131.217 727.55 125.595 725.406 120.126C724.646 118.186 724.1 116.135 723.712 114.085C722.708 108.792 722.104 103.411 720.849 98.1813C719.76 93.6424 717.979 89.3628 713.845 86.3974C708.222 82.3628 702.4 81.4047 695.571 83.0583C689.466 84.5383 686.811 88.2103 685.832 93.8116C684.967 98.768 684.307 103.769 683.213 108.675C682.366 112.479 681.75 116.656 679.693 119.804C675.071 126.879 673.154 134.384 673.31 142.666C673.443 149.753 676.526 154.616 683.248 157.296C686.05 158.414 688.588 160.174 691.345 161.426C692.849 162.111 694.573 162.764 696.176 162.715C705.337 162.437 713.306 158.719 720.638 153.604C725.452 150.246 729.426 146.235 728.029 139.533C727.866 138.743 728.008 137.889 728.008 136.367ZM398.564 136.493C398.564 138.91 398.723 140.576 398.53 142.201C398.176 145.192 399.338 147.392 401.363 149.539C406.631 155.124 413.332 158.394 420.325 160.971C423.791 162.249 427.728 162.293 431.467 162.801C432.242 162.905 433.184 162.793 433.863 162.436C438.17 160.171 442.421 157.802 446.697 155.48C450.265 153.542 452.372 150.586 452.851 146.578C453.993 137.015 452.807 127.96 446.864 119.947C446.229 119.089 445.701 118.042 445.482 117.008C443.853 109.321 442.132 101.646 440.807 93.905C439.729 87.6126 436.399 84.2592 430.042 82.8463C419.9 80.5939 410.497 85.0525 406.912 94.7246C405.806 97.711 405.051 100.85 404.4 103.974C403.36 108.97 402.993 114.148 401.516 119.001C399.688 125.007 397.861 130.901 398.564 136.493ZM791.845 133.377C792.451 127.485 791.213 121.38 789.065 115.343C788.131 112.714 787.85 109.84 787.425 107.053C786.738 102.543 786.254 98.0022 785.548 93.4941C783.383 79.6764 771.2 75.0508 761.074 78.97C760.221 79.3007 759.33 79.5644 758.434 79.7577C752.466 81.0444 748.504 84.6998 746.043 90.1023C745.134 92.0976 744.31 94.1324 743.511 96.1739C741.985 100.072 741.013 104.285 738.909 107.84C733.308 117.304 730.644 127.301 731.818 138.232C732.234 142.102 733.203 142.879 737.041 143.86C745.357 145.986 753.651 148.343 760.385 153.948C764.406 157.296 769.105 157.107 773.147 155.755C777.825 154.19 782.098 151.135 786.19 148.23C790.118 145.44 792.954 141.735 791.868 136.361C791.707 135.57 791.845 134.72 791.845 133.377ZM334.812 132.476C334.812 134.899 334.974 136.655 334.775 138.371C334.442 141.259 335.579 143.373 337.48 145.48C341.915 150.4 347.513 153.668 353.542 155.847C356.996 157.095 361.56 157.539 364.707 155.008C372.177 149 380.843 145.993 389.933 143.818C392.681 143.161 394.2 141.825 394.721 138.961C396.064 131.599 394.792 124.498 392.299 117.686C389.93 111.207 386.789 105.007 384.021 98.6691C383.51 97.4989 383.149 96.264 382.742 95.0521C379.973 86.8215 375.271 80.6126 365.996 79.1007C364.825 78.9106 363.704 78.4283 362.55 78.1162C354.063 75.8298 343.818 81.5553 342.263 89.3771C341.48 93.3128 340.522 97.2155 339.807 101.163C338.917 106.079 338.661 111.156 337.284 115.924C335.642 121.611 334.247 127.214 334.812 132.476ZM561.237 138.963C562.338 128.583 561.881 123.242 559.167 116.297C556.28 108.91 553.209 101.592 550.109 94.2895C549.292 92.369 548.162 90.5572 547.012 88.8025C545.134 85.9359 542.425 84.0922 539.145 83.0935C536.593 82.3178 534.025 81.5926 531.464 80.8422C523.954 78.6414 512.342 83.3704 511.441 92.714C510.933 97.9835 510.023 103.264 510.088 108.53C510.229 119.879 509.281 130.927 504.935 141.609C502.674 147.166 504.802 152.235 510.317 154.845C514.17 156.669 518.395 158.369 522.577 158.733C533.757 159.707 545 160.047 556.224 160.398C561.157 160.552 562.38 158.915 562.072 154.004C561.758 148.993 561.513 143.977 561.237 138.963ZM562.898 142.834C563.312 146.921 563.482 151.049 564.199 155.082C565.054 159.869 565.933 160.581 570.912 160.419C581.778 160.064 592.667 159.799 603.483 158.806C607.942 158.396 612.443 156.648 616.551 154.722C621.884 152.221 623.594 147.148 621.774 141.622C619.457 134.59 616.876 127.674 616.77 120.075C616.653 111.577 616.112 103.078 615.559 94.5928C615.099 87.5433 610.934 83.333 604.412 81.0894C599.44 79.3798 594.857 81.1707 590.095 82.2486C583.191 83.8121 579.041 88.107 576.476 94.3104C573.514 101.477 570.462 108.611 567.682 115.849C564.355 124.508 563.502 133.621 562.898 142.834ZM397.029 126.87C397.361 126.056 397.619 125.369 397.918 124.699C401.069 117.645 401.218 109.939 402.832 102.551C403.474 99.6107 404.437 96.7408 405.27 93.8435C407.939 84.5614 420.341 78.4909 430.656 81.0982C438.709 83.133 441.794 87.9334 442.974 95.2191C443.969 101.357 445.056 107.486 446.397 113.555C446.916 115.903 448.159 118.118 449.233 120.315C450.629 123.173 452.189 125.953 453.874 129.138C456.224 126.467 457.731 123.472 458.224 120.062C459.294 112.666 461.189 105.523 464.801 98.9482C465.972 96.8166 467.593 94.8422 469.341 93.1304C472.445 90.0924 476.296 89.0761 480.56 90.1858C483.05 90.834 485.581 91.4746 487.924 92.4975C492.426 94.461 493.22 98.7746 493.989 102.942C494.97 108.249 495.635 113.616 496.751 118.892C497.249 121.244 498.45 123.464 499.453 125.69C501.018 129.162 502.688 132.589 504.976 136.262C505.839 132.913 507.208 129.602 507.464 126.208C508.063 118.276 508.021 110.299 508.457 102.352C508.658 98.7163 509.4 95.1125 509.846 91.4867C510.936 82.6485 522.037 77.5526 528.23 78.6129C533.09 79.4435 537.971 80.7521 542.518 82.6265C547.881 84.8394 550.395 89.899 552.43 94.9752C556.122 104.188 559.637 113.471 563.279 122.858C563.478 122.553 563.778 122.232 563.923 121.853C567.216 113.249 570.424 104.612 573.811 96.0442C574.882 93.337 576.267 90.7187 577.786 88.2279C579.647 85.1745 582.34 82.8803 585.814 81.8234C591.235 80.1764 596.546 77.5372 602.459 78.8029C610.128 80.4444 616.311 84.6295 617.104 93.059C617.909 101.608 617.903 110.23 618.657 118.785C619.119 124.019 620.323 129.19 621.253 134.379C621.365 135.01 621.839 135.577 622.123 136.13C627.512 126.39 631.542 116.429 632.273 105.403C632.392 103.59 632.825 101.784 633.254 100.008C634.269 95.8113 636.677 93.2392 640.983 91.5801C652.417 87.1775 658.761 91.5592 662.725 100.904C665.266 106.899 666.356 113.489 668.297 119.752C669.307 123.009 670.75 126.135 671.999 129.32C672.295 129.284 672.593 129.247 672.888 129.208C673.953 126.96 674.69 124.472 676.145 122.509C679.8 117.582 680.83 111.871 681.835 106.097C682.604 101.681 683.383 97.2671 684.204 92.8601C685.302 86.9599 688.327 83.2089 694.596 81.5344C702.943 79.3051 710.064 80.7268 716.469 86.2732C720.919 90.1254 722.202 95.5597 723.437 100.897C724.381 104.982 724.572 109.238 725.49 113.331C726.521 117.924 727.993 122.42 729.272 126.959C729.508 126.942 729.743 126.925 729.979 126.909C730.629 124.319 731.009 121.624 731.989 119.164C733.674 114.937 735.842 110.902 737.602 106.703C739.189 102.916 740.445 98.9932 741.955 95.1729C742.962 92.625 744.045 90.0924 745.294 87.6554C747.709 82.9364 751.454 79.7512 756.69 78.3832C758.915 77.8009 761.079 76.978 763.317 76.4528C774.762 73.7653 784.455 80.0918 787.081 92.1789C788.147 97.0836 788.56 102.123 789.391 107.081C789.947 110.396 790.301 113.828 791.467 116.942C794.499 125.041 793.63 133.374 793.512 141.67C793.498 142.649 792.796 143.727 792.161 144.572C787.418 150.883 780.884 155.099 773.615 157.429C769.072 158.886 763.73 159.093 759.254 155.308C752.845 149.889 744.83 147.809 736.95 145.493C734.619 144.807 732.47 143.512 729.975 142.378C730.201 142.036 729.832 142.336 729.865 142.582C730.54 147.544 727.291 150.579 723.931 152.997C719.491 156.191 714.762 159.26 709.706 161.254C705.032 163.098 699.774 163.507 694.748 164.411C693.838 164.575 692.7 164.284 691.852 163.85C687.93 161.841 684.08 159.695 680.192 157.619C676.509 155.653 673.568 153.008 672.079 148.201C670.262 152.037 666.892 151.408 664.233 152.496C655.425 156.093 646.317 155.446 637.243 155.133C632.4 154.966 627.458 154.397 623.221 150.809C619.048 157.363 612.197 159.583 605.301 160.235C593.038 161.396 580.672 161.545 568.344 161.885C566.618 161.933 564.855 160.662 563.822 160.269C561.201 160.854 559 161.794 556.816 161.756C545.686 161.564 534.513 161.607 523.446 160.59C515.987 159.906 508.424 158.12 503.719 151.17C492.469 157.13 480.503 155.601 468.642 154.441C465.05 154.089 461.505 152.918 458.044 151.798C456.76 151.383 455.778 150.041 454.319 148.844C452.15 155.718 446.089 157.828 440.459 160.472C440.043 160.667 439.567 160.817 439.245 161.12C434.311 165.755 428.49 164.726 422.855 163.312C413.181 160.886 404.717 156.23 398.259 148.48C397.51 147.581 397.166 146.225 396.97 145.027C396.752 143.701 396.92 142.312 396.634 140.68C394.995 145.089 391.009 145.217 387.482 146.184C379.619 148.337 372.038 151.05 365.718 156.481C364.77 157.295 363.238 157.595 361.922 157.808C352.053 159.407 344.861 154.134 337.911 148.383C334.413 145.49 332.928 141.952 332.945 137.158C332.976 128.849 333.653 120.838 336.364 112.872C337.805 108.633 337.552 103.842 338.234 99.325C338.711 96.1662 339.434 93.0414 340.116 89.9166C342.508 78.9359 355.087 73.3071 364.525 76.7769C365.56 77.157 366.608 77.5647 367.686 77.7614C376.049 79.2864 380.735 84.7537 383.546 92.2492C384.639 95.1619 385.621 98.1175 386.794 100.997C387.82 103.517 389.182 105.906 390.149 108.446C392.192 113.804 394.082 119.221 396.009 124.622C396.191 125.13 396.183 125.703 396.31 126.235C396.344 126.37 396.557 126.464 397.029 126.87Z" fill="#247DA3"/>
<path d="M1066.3 133.921C1062.86 137.248 1059.54 140.463 1056.23 143.662C1061.89 144.792 1067.68 145.379 1073.79 143.161C1070.99 139.706 1068.44 136.564 1066.3 133.921ZM995.461 146.259C992.093 142.41 989.128 139.023 985.966 135.41C982.838 139.041 979.894 142.459 976.529 146.365C983.215 148.01 989.117 148.322 995.461 146.259ZM879.292 154.286C888.398 162.861 904.518 159.311 907.828 148.351C904.841 146.479 902.12 145.545 898.545 147.818C895.436 149.794 891.67 150.81 888.111 152.006C885.364 152.93 882.488 153.476 879.292 154.286ZM1065.58 130.136C1069.68 134.806 1073 139.076 1076.84 142.821C1080.75 146.642 1085.66 146.953 1089.85 143.481C1096.32 138.122 1102.56 132.39 1101.08 122.664C1100.9 121.5 1101.2 120.264 1101 119.105C1100.09 113.544 1099.49 107.89 1097.99 102.48C1096.73 97.8927 1093.15 95.8172 1088.08 95.9062C1072.15 96.1886 1056.22 96.3688 1040.28 96.2337C1036.45 96.2007 1034.16 97.5939 1032.51 100.633C1027.13 110.562 1025.24 121.1 1027.56 132.177C1029.01 139.084 1037.54 145.718 1044.25 145.648C1049.35 145.595 1053.12 142.929 1056.49 139.537C1059.64 136.368 1062.71 133.116 1065.58 130.136ZM856.373 126.899C856.516 126.896 856.658 126.894 856.8 126.89C856.711 125.983 856.752 125.04 856.513 124.173C854.057 115.285 851.624 106.388 849.048 97.5334C847.112 90.8817 843.671 85.1749 838.047 80.846C835.668 79.0155 833.218 78.4452 830.311 78.9924C824.463 80.0933 820.161 83.1961 817.643 88.5437C816.245 91.5168 815.016 94.579 813.895 97.6675C812.345 101.937 811.313 106.4 807.929 109.822C806.868 110.894 806.218 112.42 805.555 113.82C803.208 118.78 800.655 123.671 798.748 128.798C797.706 131.6 797.284 134.856 797.493 137.845C798.046 145.723 809.787 156.117 817.921 157.266C826.229 158.438 832.701 155.112 838.911 150.208C841.567 148.11 844.852 146.76 847.942 145.251C850.07 144.212 852.466 143.68 854.514 142.524C855.424 142.011 856.239 140.54 856.291 139.464C856.495 135.285 856.373 131.089 856.373 126.899ZM986.635 131.969C987.379 133.132 987.786 133.961 988.366 134.644C991.32 138.123 994.108 141.779 997.362 144.959C1000.71 148.229 1004.96 149.339 1009.63 148.028C1014.36 146.698 1017.61 143.376 1020.86 139.944C1023.34 137.336 1023.1 134.304 1023.14 131.219C1023.17 127.926 1023.43 124.611 1023.14 121.345C1022.63 115.719 1022.23 110.017 1020.95 104.538C1019.12 96.6797 1016.42 94.7372 1008.33 94.7581C992.676 94.7965 977.017 95.2129 961.362 95.1371C957.386 95.1173 955.183 96.7995 953.502 99.8935C952.803 101.178 952.085 102.468 951.546 103.821C948.268 112.05 947.133 120.612 947.999 129.384C948.227 131.694 949.179 133.964 950.035 136.163C950.256 136.731 951.695 137.462 952.023 137.256C953.923 136.056 954.576 137.27 955.492 138.559C957.134 140.866 958.718 143.278 960.72 145.255C965.205 149.685 970.68 149.551 975.111 145.059C977.234 142.907 979.153 140.555 981.151 138.281C982.892 136.298 984.614 134.297 986.635 131.969ZM905.447 131.468C905.691 131.595 905.935 131.724 906.18 131.851C906.125 132.265 906.136 132.702 906.002 133.088C905.049 135.838 904.122 138.597 903.078 141.312C902.246 143.477 903.149 144.515 905.153 145.192C907.067 145.839 908.953 146.603 910.776 147.468C916.618 150.242 922.676 151.262 929.009 149.658C934.158 148.353 938.641 145.558 941.892 141.569C943.395 139.727 943.114 136.444 943.622 133.811C943.9 132.375 944.213 130.94 944.368 129.489C944.502 128.225 944.877 126.737 944.387 125.699C940.81 118.117 940.363 110.273 941.009 102.016C941.436 96.549 937.9 93.5011 932.337 92.9397C928.674 92.5694 924.978 92.287 921.3 92.3244C906.366 92.476 891.434 92.832 876.5 92.943C873.909 92.9616 872.107 93.8615 871.213 96.0359C869.795 99.4881 868.455 103.014 867.551 106.624C865.711 113.963 864.914 121.59 860.263 128.025C859.328 129.319 858.956 131.336 859.048 132.981C859.502 141.193 863.934 147.206 870.596 151.569C872.257 152.657 874.917 153.027 876.92 152.66C882.055 151.717 887.091 150.215 892.146 148.861C897.811 147.342 901.821 144.473 902.147 137.901C902.264 135.544 903.443 133.096 905.447 131.468ZM858.983 126.478C862.403 122.33 863.197 117.917 864.223 113.595C865.3 109.058 866.319 104.506 867.523 100.003C867.942 98.4366 868.746 96.9456 869.538 95.5096C870.971 92.9144 873.029 91.6552 876.247 91.6629C893.946 91.7003 911.645 91.5311 929.344 91.4487C930.45 91.4432 931.561 91.5025 932.657 91.6388C939.489 92.4914 942.837 96.1337 942.908 102.953C942.935 105.415 943.03 107.981 942.41 110.322C941.183 114.971 943.758 118.312 945.455 122.008C946.605 116.639 947.65 111.403 948.881 106.21C949.3 104.45 950.082 102.749 950.883 101.112C953.201 96.3743 956.217 93.5242 962.39 93.7461C973.981 94.1636 985.611 93.4253 997.227 93.3308C1002.29 93.2902 1007.36 93.6692 1012.42 93.8307C1016.31 93.9549 1019.31 95.7799 1020.73 99.2299C1022.21 102.827 1023.05 106.695 1024.03 110.478C1024.46 112.114 1024.56 113.833 1025.39 115.516C1026.11 112.863 1026.54 110.083 1027.63 107.588C1029.19 104.02 1030.98 100.496 1033.19 97.2994C1034.04 96.0721 1036.28 95.2074 1037.9 95.1833C1055.14 94.9251 1072.38 94.8767 1089.62 94.7515C1094.34 94.7174 1097.76 97.017 1099.29 101.181C1100.82 105.342 1101.9 109.778 1102.38 114.179C1102.94 119.343 1102.65 124.6 1102.68 129.816C1102.68 130.426 1102.58 131.197 1102.21 131.626C1098.52 135.914 1095.08 140.479 1090.93 144.293C1087.46 147.489 1082.99 147.652 1078.46 145.77C1077.01 145.163 1075.07 145.006 1073.54 145.376C1067 146.955 1060.54 146.217 1054.04 145.263C1052.9 145.096 1051.63 145.175 1050.53 145.506C1039.62 148.791 1029.19 143.266 1025.83 132.361C1025.78 132.197 1025.65 132.058 1025.38 131.606C1025.15 132.344 1024.89 132.854 1024.85 133.383C1023.96 143.602 1011.41 152.042 1001.6 148.835C999.047 148 996.772 147.775 994.127 148.524C988.224 150.197 982.248 149.329 976.298 148.423C975.086 148.239 973.682 148.22 972.572 148.65C967.015 150.801 962.459 149.221 958.525 145.194C957.312 143.954 956.264 142.538 955.259 141.12C954.302 139.766 953.653 138.494 951.399 138.977C950.567 139.157 949.044 137.504 948.294 136.384C947.374 135.011 946.936 133.321 946.289 131.769C946.037 131.792 945.787 131.816 945.536 131.84C945.328 134.138 945.267 136.463 944.853 138.723C944.609 140.056 944.119 141.597 943.203 142.521C934.871 150.914 924.916 153.444 913.569 149.977C911.16 149.241 909.683 149.56 908.173 151.615C906.72 153.591 904.858 155.296 903.036 156.972C897.984 161.628 892.177 162.485 885.874 159.923C883.152 158.816 880.56 157.402 877.882 156.185C875.799 155.238 873.721 154.249 871.56 153.51C867.695 152.191 865.015 149.503 862.716 146.344C861.385 144.516 860.177 142.601 858.768 140.514C856.425 144.721 852.281 145.519 848.413 146.97C845.555 148.043 842.639 149.406 840.293 151.301C833.364 156.902 826.049 160.657 816.727 158.771C805.481 156.497 794.945 144.077 795.613 133.573C795.705 132.132 795.933 130.607 796.514 129.305C799.278 123.122 801.445 116.499 805.24 110.995C809.411 104.953 811.545 98.2916 814.118 91.6904C817.216 83.7356 822.19 77.8332 831.359 77.1553C833.56 76.9927 836.223 77.5937 838.046 78.7902C843.127 82.1282 847.165 86.611 849.067 92.4848C851.235 99.1771 853.018 105.993 854.977 112.752C856.243 117.119 857.523 121.482 858.983 126.478Z" fill="#247DA3"/>
<path d="M52.7316 143.221C59.0179 145.302 64.8305 144.963 70.6022 143.566C67.2306 140.025 64.0183 136.652 60.8326 133.309C58.136 136.608 55.6153 139.692 52.7316 143.221ZM150.122 146.415C146.626 142.391 143.585 138.893 140.572 135.425C137.316 139.206 134.414 142.573 131.25 146.248C137.459 148.461 143.365 147.959 150.122 146.415ZM247.381 154.4C246.305 154.085 245.632 153.911 244.973 153.69C239.245 151.764 233.224 150.405 227.891 147.704C224.097 145.783 221.595 146.725 218.631 148.465C223.604 159.794 237.248 162.792 247.381 154.4ZM60.6788 130.285C61.2929 130.841 61.9801 131.426 62.6252 132.053C65.9824 135.322 69.1914 138.755 72.7102 141.839C77.8988 146.385 84.3765 146.988 89.8162 143.527C95.9951 139.597 99.9223 134.243 99.8315 126.6C99.8028 124.129 99.9853 121.635 99.7076 119.191C98.8611 111.769 97.3816 104.483 92.4022 98.544C91.4428 97.3991 89.502 96.4871 87.9982 96.4619C71.9578 96.1927 55.9129 96.118 39.8703 96.0037C32.3945 95.9509 29.606 97.988 27.5257 105.091C25.1146 113.323 25.6003 121.763 25.8194 130.176C25.8349 130.774 26.0784 131.474 26.4524 131.937C29.2187 135.351 31.7328 139.046 34.9196 142.028C40.5962 147.341 45.6166 147.195 51.1061 141.664C54.4965 138.249 57.3381 134.298 60.6788 130.285ZM270.344 135.284H270.396C270.396 136.016 270.406 136.749 270.395 137.481C270.324 141.904 270.709 142.461 274.962 144.053C275.478 144.247 275.978 144.521 276.513 144.622C281.452 145.562 285.431 148.058 289.262 151.297C299.976 160.353 312.206 159.628 322.132 149.68C323.618 148.191 324.973 146.552 326.234 144.869C329.638 140.333 330.441 135.175 328.376 130.048C325.784 123.61 323.249 116.954 319.369 111.283C315.753 105.994 313.802 100.274 311.578 94.5149C310.625 92.0472 309.574 89.5695 308.187 87.3281C307.004 85.4163 305.579 83.3573 303.732 82.197C296.713 77.7922 291.747 77.2198 286.161 82.931C282.937 86.2261 280.198 89.7486 278.865 94.093C275.89 103.794 272.876 113.501 270.492 123.352C269.58 127.123 270.344 131.295 270.344 135.284ZM175.658 137.993C176.433 136.326 177.324 135.013 177.667 133.571C180.34 122.359 178.559 111.623 173.841 101.266C172.006 97.2343 169.359 94.3237 164.3 95.2137C163.858 95.2906 163.382 95.1522 162.922 95.1489C147.356 95.0412 131.79 94.9621 116.224 94.8193C111.057 94.772 108.007 97.4287 106.34 102.03C106.059 102.804 105.743 103.57 105.535 104.363C102.788 114.881 103.418 125.597 103.691 136.289C103.707 136.881 103.962 137.631 104.378 138.025C107.549 141.025 110.453 144.475 114.085 146.784C119.119 149.983 124.763 149.2 129.084 145.054C132.494 141.783 135.339 137.932 138.419 134.323C138.975 133.671 139.449 132.948 140.08 132.098C141 133.148 141.663 133.901 142.32 134.658C145.269 138.048 148.122 141.528 151.187 144.813C155.731 149.68 161.181 149.819 165.954 145.165C167.711 143.452 169.233 141.446 170.578 139.391C171.833 137.474 172.824 135.6 175.658 137.993ZM220.418 131.777C220.628 131.659 220.838 131.54 221.05 131.42C221.586 132.031 222.351 132.558 222.618 133.269C223.577 135.823 224.602 138.389 225.159 141.043C225.755 143.869 226.901 146.02 229.768 146.954C235.087 148.689 240.378 150.523 245.752 152.072C250.662 153.488 255.668 153.604 259.252 149.333C262.105 145.934 264.56 142.123 266.665 138.215C268.429 134.942 268.479 131.089 266.293 127.976C262.19 122.133 261.187 115.37 259.498 108.739C258.336 104.179 256.573 99.7569 254.872 95.3532C254.198 93.6085 252.584 93.002 250.59 92.9965C244.879 92.9789 239.169 92.6635 233.458 92.6493C221.027 92.6152 208.586 92.4295 196.165 92.824C187.937 93.0844 184.982 96.8926 185.431 105.088C185.501 106.365 185.563 107.658 185.817 108.907C186.634 112.931 185.92 116.635 183.987 120.253C182.168 123.655 181.693 127.298 182.478 131.158C183.002 133.74 183.042 136.415 183.384 139.037C183.485 139.814 183.66 140.768 184.169 141.277C188.174 145.288 192.645 148.619 198.352 149.854C205.247 151.346 211.543 149.56 217.808 146.696C224.799 143.5 224.958 143.593 222.166 136.392C221.771 135.374 221.184 134.431 220.766 133.42C220.557 132.91 220.529 132.328 220.418 131.777ZM267.284 141.402C266.051 143.171 264.6 145.391 263.006 147.506C260.625 150.666 257.6 152.793 253.658 153.918C250.965 154.688 248.568 156.438 245.976 157.612C243.555 158.708 241.093 159.753 238.57 160.587C233.662 162.208 229.035 161.462 225.08 158.127C222.565 156.008 220.211 153.652 218.062 151.165C216.7 149.59 215.478 149.259 213.525 149.869C202.246 153.395 192.209 151.271 183.787 142.892C182.696 141.806 182.229 140.003 181.743 138.45C181.397 137.342 181.553 136.089 181.396 134.912C181.253 133.853 180.99 132.808 180.624 130.984C179.666 133.286 179.081 134.95 178.294 136.515C177.443 138.206 176.419 139.632 173.995 139.01C173.425 138.864 172.314 139.821 171.819 140.525C169.256 144.165 166.613 147.762 162.076 149.038C160.287 149.542 158.025 149.895 156.426 149.239C153.007 147.835 149.733 148.377 146.41 148.942C141.038 149.854 135.791 149.534 130.542 148.107C129.398 147.796 127.929 147.902 126.822 148.344C120.548 150.841 114.832 149.796 109.726 145.677C107.318 143.735 105.009 141.503 103.246 138.993C102.038 137.273 101.85 134.848 101.298 133.04C99.3679 135.584 97.5686 138.533 95.2106 140.944C89.9092 146.364 83.6959 148.447 76.1095 145.649C74.1277 144.918 71.5672 145.363 69.3463 145.719C63.527 146.651 57.8062 146.596 52.0788 145.107C51.053 144.841 49.6864 145.019 48.727 145.492C43.5473 148.045 38.6354 147.354 34.633 143.593C30.9195 140.103 27.8732 135.91 24.5868 131.982C24.2083 131.529 24.0069 130.798 23.997 130.192C23.8586 121.506 23.4205 112.796 25.9744 104.308C28.0558 97.3903 31.5746 94.7511 38.8324 94.7929C55.3331 94.8885 71.8338 95.0445 88.3346 95.0687C90.6926 95.072 92.3834 95.8927 93.8507 97.587C97.5841 101.902 99.1233 107.153 100.429 112.514C100.706 113.648 101.038 114.769 101.509 116.502C102.391 111.89 103.035 107.895 103.961 103.964C104.395 102.125 105.206 100.318 106.141 98.6604C107.83 95.6664 110.476 93.904 114.005 93.882C126.902 93.8007 139.799 93.7634 152.695 93.759C157.304 93.7579 161.924 94.1205 166.517 93.8985C169.849 93.7381 171.898 95.2258 173.62 97.6913C177.397 103.098 179.006 109.255 179.94 115.645C180.238 117.687 180.484 119.736 181.023 121.77C183.341 117.976 185.136 114.182 184.214 109.636C183.818 107.675 183.672 105.635 183.682 103.632C183.723 95.8015 187.387 91.8637 195.251 91.5978C203.907 91.3033 212.576 91.2297 221.238 91.2605C230.731 91.2956 240.227 91.7637 249.717 91.6307C253.944 91.5725 256.531 93.3953 257.767 96.931C259.481 101.834 260.686 106.912 262.073 111.925C262.973 115.181 263.675 118.498 264.726 121.703C265.273 123.369 266.384 124.852 267.599 127.074C270.384 116.835 272.858 107.394 275.539 98.0122C277.29 91.8845 279.932 86.2349 284.796 81.7499C291.448 75.6146 300.289 75.4201 306.45 82.1828C309.273 85.2823 311.09 89.3619 313.002 93.1756C314.303 95.7719 314.853 98.7296 315.973 101.429C316.798 103.417 317.981 105.26 319.039 107.149C320.736 110.178 322.587 113.13 324.141 116.229C326.026 119.989 327.753 123.835 329.402 127.705C332.109 134.055 331.809 140.208 327.649 145.9C323.569 151.485 318.633 156.1 311.844 158.245C303.24 160.962 295.529 158.672 288.882 153.174C284.744 149.751 280.391 147.322 275.205 145.878C272.449 145.11 270.065 143.026 267.284 141.402Z" fill="#247DA3"/>
<path d="M672.671 194.884C677.006 195.362 681.727 195.5 686.333 197.843C690.07 199.745 694.634 200.037 698.826 201.067C699.715 201.285 700.599 201.555 701.456 201.883C705.557 203.455 705.872 204.04 705.404 208.387C705.188 210.386 705.213 212.413 704.954 214.406C702.883 230.271 702.889 246.27 701.75 262.195C701.498 265.729 700.804 269.276 699.903 272.71C698.348 278.651 693.839 281.491 687.716 280.196C680.972 278.768 675.202 275.696 672.656 268.743C670.018 261.535 666.524 254.442 665.266 246.989C664.164 240.458 661.49 235.165 658.161 229.785C653.719 222.604 653.317 214.352 652.583 206.253C652.518 205.535 653.455 204.558 654.158 203.973C656.675 201.872 659.366 199.972 661.851 197.836C664.267 195.759 667.114 194.828 672.671 194.884Z" fill="white"/>
<path d="M470.631 208.014C470.098 218.216 467.638 227.696 461.273 235.976C459.965 237.678 459.367 240.111 459.002 242.299C457.227 252.946 453.592 262.974 448.59 272.463C445.932 277.505 436.144 281.282 430.645 279.995C425.563 278.805 423.455 274.809 422.976 270.299C421.887 260.047 421.349 249.738 420.498 239.459C420.094 234.571 419.38 229.708 419 224.819C418.497 218.352 418.09 211.874 417.898 205.393C417.87 204.467 419.092 202.987 420.053 202.646C423.581 201.395 427.267 200.594 430.844 199.471C433.885 198.517 436.805 197.167 439.871 196.319C446.228 194.561 452.674 193.697 459.098 196.012C460.164 196.396 461.026 197.37 461.952 198.109C464.015 199.76 465.9 201.708 468.159 203.024C470.307 204.274 471.38 205.624 470.631 208.014Z" fill="white"/>
<path d="M767.102 207.862C766.759 205.371 767.769 204.105 770.188 203.14C775.734 200.928 781.124 198.33 786.543 195.816C791.914 193.325 797.386 192.128 803.076 194.573C809.894 197.503 816.681 200.514 823.43 203.597C827.159 205.3 827.369 206.009 826.454 210.04C825.968 212.179 825.36 214.334 825.244 216.503C825.052 220.099 823.581 222.786 821.105 225.437C819.562 227.088 819.201 229.875 818.455 232.199C816.946 236.901 815.604 241.654 814.068 246.345C811.95 252.822 807.831 257.883 802.521 262.086C799.814 264.228 796.962 265.242 793.55 263.868C792.448 263.423 791.266 263.087 790.088 262.932C783.669 262.087 780.863 257.864 779.706 252.094C778.411 245.64 777.388 239.12 775.797 232.74C774.951 229.338 773.402 226.04 771.735 222.925C769.184 218.158 767.566 213.189 767.102 207.862Z" fill="white"/>
<path d="M357.07 208.138C355.536 212.661 354.732 217.555 352.344 221.508C348.502 227.861 347.296 234.752 345.957 241.755C345.065 246.416 343.904 251.035 342.65 255.614C341.693 259.112 339.494 261.56 335.705 262.294C334.715 262.486 333.707 262.736 332.798 263.153C327.024 265.798 322.615 263.966 318.154 259.816C311.592 253.716 309.025 245.814 306.543 237.752C305.818 235.394 305.245 232.989 304.643 230.595C303.965 227.899 302.775 225.629 300.804 223.494C299.389 221.96 298.879 219.466 298.338 217.308C297.584 214.299 296.993 211.221 296.722 208.139C296.626 207.058 297.372 205.311 298.257 204.842C301.405 203.172 304.798 201.963 308.062 200.501C311.318 199.043 314.628 197.666 317.737 195.938C322.512 193.282 327.506 192.294 332.594 194.295C340.116 197.254 347.514 200.543 354.837 203.959C355.879 204.445 356.208 206.442 357.07 208.138Z" fill="white"/>
<path d="M416.499 207.099C415.727 209.983 415.497 212.569 414.38 214.694C410.422 222.235 408.483 230.289 406.822 238.566C405.665 244.334 403.173 249.851 401.118 255.423C398.831 261.624 393.513 264.091 387.607 265.495C384.408 266.257 381.74 264.725 379.995 262.132C378.423 259.794 376.962 257.281 376.02 254.645C372.731 245.448 369.697 236.161 366.542 226.918C366.188 225.884 365.61 224.926 365.251 223.893C363.361 218.478 361.398 213.082 359.753 207.594C359.49 206.718 360.42 204.867 361.304 204.388C364.196 202.826 367.342 201.73 370.354 200.377C373.855 198.801 377.419 197.323 380.774 195.478C386.17 192.512 391.508 192.022 397.12 194.784C402.802 197.583 408.629 200.104 414.206 203.091C415.411 203.734 415.821 205.843 416.499 207.099Z" fill="white"/>
<path d="M733.777 192.411C736.597 193.37 739.161 194.076 741.588 195.103C746.725 197.279 751.724 199.787 756.903 201.856C764.334 204.823 764.665 205.029 762.421 212.508C761.221 216.506 759.325 220.294 757.988 224.257C756.208 229.532 754.869 234.958 752.975 240.187C750.734 246.373 748.315 252.514 745.589 258.501C742.16 266.031 738.085 267.059 730.505 263.786C725.405 261.583 722.876 257.659 721.11 252.941C718.22 245.23 715.551 237.478 714.661 229.185C714.359 226.387 712.884 223.657 711.662 221.028C709.376 216.111 706.875 211.264 707.603 205.622C707.726 204.669 708.545 203.431 709.391 203.002C714.543 200.382 719.752 197.856 725.037 195.51C727.853 194.259 730.86 193.43 733.777 192.411Z" fill="white"/>
<path d="M499.841 197.077C504.714 197.9 509.679 198.378 514.436 199.634C520.23 201.166 521.579 203.584 521.048 209.477C520.327 217.502 520.484 226.271 515.01 232.462C508.061 240.321 507.685 249.891 505.301 258.997C504.391 262.477 503.165 265.522 500.404 267.941C499.106 269.077 498.087 270.535 496.996 271.892C494.105 275.483 489.353 275.817 485.81 272.839C481.825 269.49 480.696 264.781 479.991 260.14C478.581 250.853 477.666 241.488 476.624 232.147C475.695 223.817 474.96 215.466 473.952 207.146C473.631 204.503 474.586 203.061 476.881 201.988C484.139 198.589 491.861 197.731 499.841 197.077Z" fill="white"/>
<path d="M624.053 197.631C631.289 197.679 638.396 198.504 645.135 201.3C649.527 203.121 649.643 203.487 649.318 208.211C649.041 212.224 649.269 216.309 648.611 220.254C646.016 235.804 646.84 251.851 641.692 267.029C639.798 272.614 634.989 275.807 630.218 274.455C629.516 274.255 628.597 274.1 628.219 273.597C624.758 268.999 619.333 265.789 618.284 259.472C617.447 254.436 616.537 249.4 615.316 244.447C614.767 242.22 613.808 239.819 612.304 238.145C606.299 231.468 603.847 223.517 602.99 214.872C602.775 212.688 602.459 210.513 602.272 208.326C601.913 204.119 603.122 202.09 607.017 200.354C612.446 197.933 618.221 197.58 624.053 197.631Z" fill="white"/>
<path d="M599.188 210.338C599.58 213.134 599.989 215.928 600.363 218.726C600.545 220.083 601.009 221.516 600.754 222.797C599.333 229.95 601.254 236.995 601.204 244.079C601.158 250.713 600.674 257.383 599.781 263.959C599.182 268.37 595.191 270.228 591.004 268.651C587.465 267.318 584.545 265.286 581.806 262.455C576.236 256.694 573.321 249.818 570.846 242.47C568.927 236.775 566.265 231.333 564.052 225.733C561.573 219.457 561.771 212.793 561.726 206.238C561.705 203.352 564.667 202.534 566.941 202.154C571.64 201.368 576.425 200.58 581.161 200.65C586.274 200.726 591.377 201.751 596.477 202.422C598.985 202.753 600.224 204.054 599.65 206.745C599.405 207.894 599.492 209.114 599.429 210.301C599.349 210.313 599.267 210.324 599.188 210.338Z" fill="white"/>
<path d="M521.789 249.368C522.312 243.072 522.852 238.251 523.065 233.415C523.2 230.345 522.83 227.253 522.722 224.169C522.677 222.899 522.651 221.622 522.738 220.356C523.075 215.458 523.581 210.568 523.76 205.665C523.821 204.015 524.195 203.076 525.805 202.659C536.228 199.956 546.686 199.477 557.194 202.147C559.273 202.677 560.431 203.653 560.15 206.192C559.862 208.798 560.011 211.526 560.444 214.122C561.459 220.206 559.564 225.654 557.327 231.118C554.594 237.788 552.32 244.661 549.269 251.178C545.823 258.541 541.072 264.986 533.101 268.269C528.341 270.23 524.22 268.207 523.401 263.167C522.582 258.135 522.203 253.032 521.789 249.368Z" fill="white"/>
<path d="M562.961 142.875C563.565 133.662 564.418 124.549 567.745 115.89C570.525 108.653 573.578 101.518 576.539 94.3503C579.104 88.1469 583.254 83.852 590.157 82.2885C594.92 81.2106 599.503 79.4208 604.476 81.1304C610.997 83.374 615.163 87.5844 615.622 94.6327C616.174 103.119 616.716 111.617 616.834 120.116C616.939 127.715 619.52 134.631 621.837 141.662C623.658 147.188 621.948 152.262 616.614 154.763C612.506 156.689 608.005 158.437 603.547 158.847C592.73 159.839 581.841 160.105 570.975 160.46C565.996 160.622 565.116 159.911 564.263 155.122C563.545 151.09 563.375 146.961 562.961 142.875Z" fill="white"/>
<path d="M561.278 139.077C561.554 144.091 561.8 149.107 562.114 154.118C562.421 159.029 561.2 160.666 556.267 160.512C545.041 160.161 533.798 159.82 522.618 158.848C518.437 158.483 514.211 156.783 510.358 154.959C504.843 152.35 502.716 147.28 504.976 141.723C509.322 131.041 510.27 119.994 510.129 108.644C510.065 103.377 510.974 98.098 511.483 92.8285C512.383 83.4839 523.996 78.756 531.506 80.9568C534.066 81.7072 536.634 82.4313 539.187 83.2081C542.467 84.2068 545.175 86.0494 547.054 88.916C548.204 90.6717 549.334 92.4824 550.15 94.4041C553.25 101.706 556.321 109.024 559.208 116.412C561.922 123.357 562.379 128.697 561.278 139.077Z" fill="white"/>
<path d="M334.857 132.545C334.293 127.285 335.687 121.681 337.329 115.994C338.706 111.227 338.962 106.148 339.853 101.233C340.568 97.2859 341.525 93.3833 342.307 89.4476C343.863 81.6247 354.108 75.8992 362.595 78.1867C363.749 78.4977 364.87 78.98 366.041 79.1701C375.316 80.683 380.018 86.8909 382.787 95.1214C383.195 96.3333 383.556 97.5694 384.066 98.7385C386.835 105.076 389.975 111.276 392.345 117.755C394.837 124.568 396.109 131.668 394.767 139.03C394.245 141.894 392.726 143.231 389.978 143.889C380.888 146.062 372.222 149.069 364.752 155.077C361.604 157.608 357.041 157.164 353.588 155.916C347.559 153.739 341.96 150.469 337.525 145.55C335.624 143.442 334.488 141.33 334.821 138.44C335.019 136.725 334.857 134.969 334.857 132.545Z" fill="white"/>
<path d="M791.929 133.426C791.929 134.768 791.792 135.619 791.952 136.41C793.039 141.784 790.203 145.489 786.275 148.279C782.183 151.183 777.909 154.239 773.232 155.803C769.19 157.156 764.49 157.346 760.469 153.997C753.736 148.393 745.441 146.036 737.125 143.91C733.288 142.927 732.319 142.151 731.903 138.281C730.729 127.35 733.392 117.353 738.993 107.889C741.098 104.333 742.069 100.121 743.595 96.2237C744.394 94.1812 745.219 92.1463 746.127 90.151C748.588 84.7486 752.551 81.0931 758.518 79.8065C759.415 79.6131 760.305 79.3494 761.158 79.0187C771.284 75.0995 783.467 79.7252 785.633 93.5428C786.339 98.0509 786.822 102.592 787.51 107.102C787.935 109.889 788.216 112.763 789.15 115.392C791.297 121.429 792.536 127.534 791.929 133.426Z" fill="white"/>
<path d="M398.564 136.565C397.859 130.973 399.686 125.079 401.515 119.073C402.992 114.22 403.36 109.043 404.4 104.046C405.051 100.922 405.805 97.7828 406.912 94.7965C410.496 85.1244 419.898 80.6668 430.041 82.9181C436.399 84.3311 439.728 87.6844 440.805 93.9768C442.131 101.718 443.852 109.393 445.48 117.081C445.699 118.115 446.227 119.162 446.862 120.019C452.807 128.032 453.992 137.087 452.851 146.65C452.372 150.659 450.265 153.614 446.696 155.552C442.42 157.875 438.169 160.242 433.863 162.508C433.182 162.865 432.242 162.978 431.466 162.873C427.728 162.365 423.79 162.321 420.323 161.043C413.332 158.466 406.63 155.196 401.362 149.611C399.337 147.464 398.176 145.263 398.53 142.273C398.722 140.648 398.564 138.982 398.564 136.565Z" fill="white"/>
<path d="M728.009 136.423C728.009 137.946 727.866 138.8 728.031 139.59C729.426 146.292 725.453 150.303 720.639 153.66C713.307 158.776 705.339 162.494 696.177 162.772C694.574 162.82 692.851 162.168 691.346 161.483C688.588 160.23 686.051 158.471 683.249 157.353C676.528 154.673 673.443 149.81 673.31 142.722C673.155 134.441 675.072 126.936 679.694 119.861C681.751 116.713 682.366 112.536 683.215 108.732C684.308 103.826 684.969 98.8249 685.834 93.8686C686.812 88.2673 689.467 84.5953 695.573 83.1153C702.4 81.4617 708.223 82.4198 713.845 86.4543C717.98 89.4198 719.762 93.6994 720.85 98.2382C722.104 103.468 722.709 108.849 723.712 114.142C724.102 116.19 724.646 118.243 725.406 120.183C727.551 125.652 728.484 131.274 728.009 136.423Z" fill="white"/>
<path d="M641.964 153.809C639.447 153.469 634.413 152.978 629.458 152.067C625.478 151.336 625.193 149.97 624.587 146.039C623.853 141.278 623.476 136.426 625.915 132.441C631.399 123.477 633.264 113.625 634.343 103.54C635.073 96.709 638.937 93.5292 645.295 92.1174C651.445 90.7516 656.007 92.4766 659.686 98.4757C663.523 104.736 665.157 111.771 666.698 118.851C667.346 121.836 668.242 124.887 669.692 127.551C671.392 130.678 672.203 133.792 671.803 137.257C671.447 140.343 671.127 143.439 670.593 146.497C670.155 149.004 668.787 150.651 665.872 150.429C665.072 150.368 664.156 150.453 663.443 150.788C657.413 153.628 650.942 153.513 641.964 153.809Z" fill="white"/>
<path d="M484.539 153.909C475.839 153.557 469.552 153.717 463.674 150.993C462.719 150.55 461.517 150.469 460.437 150.494C458.065 150.548 456.724 149.269 456.392 147.195C455.711 142.96 455.189 138.694 454.835 134.421C454.728 133.131 455.065 131.569 455.761 130.491C459.135 125.26 459.92 119.267 461.441 113.442C462.701 108.618 464.571 103.896 466.69 99.3671C468.333 95.8545 470.996 92.4682 475.13 92.0891C483.471 91.3255 491.639 93.5076 492.621 104.313C493.155 110.198 494.604 116.011 495.801 121.823C496.103 123.29 496.887 124.713 497.68 126.018C501.233 131.862 503.869 137.886 502.112 144.948C502.026 145.292 502.082 145.674 502.097 146.037C502.269 149.919 501.517 151.303 497.677 152.039C492.549 153.023 487.328 153.527 484.539 153.909Z" fill="white"/>
<path d="M905.539 131.372C903.535 133.001 902.355 135.449 902.239 137.805C901.914 144.379 897.904 147.248 892.237 148.765C887.183 150.12 882.147 151.622 877.011 152.565C875.008 152.933 872.348 152.561 870.687 151.473C864.026 147.11 859.594 141.097 859.14 132.885C859.048 131.241 859.419 129.223 860.355 127.931C865.005 121.495 865.803 113.867 867.642 106.529C868.546 102.92 869.886 99.3937 871.306 95.9404C872.199 93.766 874 92.8673 876.592 92.8475C891.526 92.7365 906.457 92.3805 921.391 92.2289C925.069 92.1916 928.765 92.4739 932.429 92.8442C937.992 93.4067 941.528 96.4535 941.102 101.922C940.456 110.178 940.902 118.023 944.478 125.604C944.968 126.641 944.593 128.131 944.459 129.395C944.304 130.845 943.991 132.281 943.714 133.716C943.206 136.349 943.487 139.631 941.985 141.474C938.733 145.463 934.249 148.259 929.101 149.563C922.768 151.167 916.709 150.146 910.868 147.373C909.044 146.508 907.159 145.744 905.245 145.098C903.241 144.42 902.338 143.382 903.17 141.217C904.213 138.502 905.142 135.743 906.093 132.994C906.227 132.607 906.216 132.17 906.271 131.757C906.027 131.628 905.784 131.501 905.539 131.372Z" fill="white"/>
<path d="M986.699 131.907C984.677 134.235 982.956 136.236 981.215 138.219C979.217 140.492 977.298 142.845 975.174 144.997C970.744 149.488 965.269 149.623 960.784 145.193C958.782 143.215 957.198 140.804 955.555 138.497C954.639 137.208 953.987 135.994 952.086 137.194C951.759 137.401 950.319 136.668 950.099 136.1C949.243 133.902 948.291 131.632 948.063 129.322C947.197 120.55 948.332 111.988 951.61 103.76C952.148 102.405 952.867 101.116 953.566 99.8317C955.247 96.7377 957.45 95.0555 961.426 95.0753C977.082 95.15 992.74 94.7347 1008.4 94.6962C1016.49 94.6753 1019.18 96.6179 1021.02 104.476C1022.3 109.955 1022.7 115.656 1023.2 121.283C1023.5 124.549 1023.24 127.865 1023.2 131.156C1023.17 134.242 1023.4 137.274 1020.93 139.883C1017.67 143.314 1014.43 146.636 1009.69 147.966C1005.02 149.277 1000.77 148.167 997.426 144.897C994.172 141.717 991.384 138.061 988.43 134.582C987.85 133.898 987.443 133.07 986.699 131.907Z" fill="white"/>
<path d="M856.437 126.882C856.437 131.071 856.558 135.267 856.355 139.448C856.303 140.523 855.488 141.994 854.578 142.507C852.53 143.663 850.134 144.195 848.005 145.234C844.916 146.742 841.631 148.093 838.975 150.19C832.764 155.095 826.293 158.422 817.985 157.249C809.85 156.099 798.11 145.705 797.557 137.827C797.348 134.839 797.768 131.582 798.812 128.78C800.718 123.654 803.272 118.762 805.619 113.803C806.282 112.403 806.932 110.878 807.993 109.805C811.375 106.383 812.409 101.92 813.959 97.6501C815.08 94.5616 816.307 91.4994 817.707 88.5263C820.223 83.1788 824.527 80.076 830.375 78.975C833.282 78.4279 835.732 78.9981 838.111 80.8286C843.735 85.1576 847.175 90.8644 849.112 97.5161C851.688 106.371 854.121 115.267 856.577 124.156C856.816 125.023 856.775 125.966 856.864 126.873C856.722 126.876 856.58 126.879 856.437 126.882Z" fill="white"/>
<path d="M1065.69 130.025C1062.82 133.005 1059.75 136.257 1056.6 139.426C1053.23 142.819 1049.46 145.485 1044.36 145.538C1037.65 145.609 1029.12 138.974 1027.67 132.067C1025.35 120.99 1027.24 110.453 1032.62 100.522C1034.27 97.4833 1036.57 96.0912 1040.4 96.1242C1056.33 96.2593 1072.26 96.0791 1088.19 95.7968C1093.26 95.7067 1096.84 97.7822 1098.1 102.37C1099.6 107.78 1100.2 113.434 1101.12 118.994C1101.31 120.155 1101.01 121.389 1101.19 122.553C1102.67 132.279 1096.43 138.011 1089.96 143.371C1085.77 146.843 1080.86 146.532 1076.95 142.71C1073.11 138.967 1069.79 134.695 1065.69 130.025Z" fill="white"/>
<path d="M879.394 154.261C882.59 153.45 885.465 152.904 888.214 151.981C891.772 150.784 895.539 149.769 898.646 147.792C902.222 145.518 904.943 146.452 907.929 148.325C904.62 159.284 888.5 162.835 879.394 154.261Z" fill="white"/>
<path d="M995.535 146.167C989.192 148.23 983.289 147.918 976.604 146.275C979.969 142.367 982.912 138.95 986.04 135.319C989.201 138.932 992.166 142.318 995.535 146.167Z" fill="white"/>
<path d="M1066.41 133.947C1068.56 136.589 1071.1 139.732 1073.9 143.187C1067.79 145.404 1062 144.818 1056.34 143.688C1059.65 140.489 1062.97 137.274 1066.41 133.947Z" fill="white"/>
<path d="M220.422 131.702C220.533 132.251 220.561 132.834 220.771 133.343C221.188 134.355 221.775 135.298 222.171 136.316C224.962 143.516 224.803 143.423 217.812 146.62C211.548 149.484 205.252 151.27 198.357 149.778C192.649 148.543 188.179 145.212 184.173 141.201C183.664 140.691 183.489 139.738 183.388 138.961C183.047 136.338 183.007 133.663 182.482 131.082C181.698 127.222 182.172 123.579 183.992 120.176C185.925 116.559 186.638 112.854 185.822 108.83C185.567 107.582 185.505 106.289 185.436 105.011C184.986 96.8169 187.941 93.0087 196.169 92.7472C208.59 92.3539 221.031 92.5396 233.463 92.5725C239.174 92.5879 244.883 92.9033 250.594 92.9197C252.588 92.9252 254.203 93.5317 254.877 95.2765C256.577 99.6813 258.34 104.103 259.502 108.663C261.192 115.293 262.194 122.056 266.297 127.9C268.484 131.014 268.433 134.865 266.669 138.139C264.564 142.047 262.109 145.859 259.256 149.257C255.672 153.527 250.666 153.411 245.756 151.996C240.382 150.446 235.092 148.612 229.772 146.878C226.905 145.943 225.759 143.792 225.164 140.967C224.606 138.314 223.581 135.746 222.622 133.194C222.355 132.482 221.591 131.955 221.054 131.345C220.843 131.463 220.632 131.583 220.422 131.702Z" fill="white"/>
<path d="M175.708 137.87C172.874 135.478 171.883 137.352 170.628 139.269C169.282 141.325 167.761 143.33 166.003 145.043C161.231 149.697 155.78 149.558 151.237 144.69C148.172 141.406 145.32 137.926 142.371 134.536C141.713 133.779 141.05 133.026 140.129 131.977C139.499 132.827 139.026 133.549 138.468 134.202C135.389 137.81 132.544 141.662 129.134 144.933C124.812 149.077 119.168 149.861 114.134 146.661C110.503 144.353 107.598 140.904 104.428 137.902C104.013 137.509 103.756 136.759 103.741 136.167C103.467 125.475 102.838 114.758 105.584 104.24C105.792 103.447 106.11 102.681 106.39 101.908C108.056 97.3072 111.107 94.6494 116.274 94.6967C131.839 94.8395 147.406 94.9186 162.972 95.0263C163.432 95.0296 163.908 95.1691 164.349 95.0911C169.409 94.2011 172.055 97.1117 173.891 101.143C178.608 111.501 180.39 122.236 177.716 133.45C177.373 134.892 176.482 136.203 175.708 137.87Z" fill="white"/>
<path d="M270.389 135.29C270.389 131.301 269.626 127.129 270.537 123.357C272.921 113.506 275.935 103.798 278.911 94.0988C280.243 89.7545 282.983 86.2319 286.206 82.9368C291.792 77.2256 296.758 77.7981 303.776 82.2029C305.625 83.3621 307.048 85.4222 308.232 87.334C309.619 89.5754 310.671 92.053 311.623 94.5208C313.847 100.279 315.798 105.999 319.414 111.287C323.294 116.96 325.829 123.616 328.422 130.053C330.487 135.18 329.683 140.339 326.279 144.874C325.018 146.558 323.664 148.197 322.177 149.686C312.251 159.634 300.021 160.358 289.308 151.302C285.476 148.064 281.498 145.568 276.558 144.628C276.024 144.527 275.524 144.251 275.007 144.058C270.754 142.466 270.368 141.909 270.439 137.487C270.451 136.755 270.441 136.022 270.441 135.29H270.389Z" fill="white"/>
<path d="M60.7156 130.351C57.375 134.364 54.5334 138.316 51.1441 141.73C45.6545 147.26 40.633 147.406 34.9576 142.094C31.7707 139.113 29.2556 135.418 26.4903 132.002C26.1152 131.54 25.8718 130.84 25.8563 130.242C25.6383 121.83 25.1514 113.389 27.5626 105.157C29.6429 98.0537 32.4313 96.0166 39.9071 96.0694C55.9498 96.1836 71.9946 96.2583 88.035 96.5275C89.5399 96.5528 91.4808 97.4658 92.439 98.6096C97.4185 104.548 98.8979 111.835 99.7444 119.258C100.022 121.701 99.8396 124.195 99.8695 126.666C99.9602 134.308 96.032 139.663 89.8542 143.594C84.4133 147.055 77.9356 146.451 72.7482 141.905C69.2282 138.821 66.0193 135.387 62.6631 132.12C62.018 131.492 61.3309 130.907 60.7156 130.351Z" fill="white"/>
<path d="M247.453 154.509C237.32 162.901 223.675 159.902 218.702 148.574C221.666 146.836 224.169 145.891 227.963 147.813C233.295 150.514 239.315 151.875 245.044 153.799C245.702 154.02 246.376 154.194 247.453 154.509Z" fill="white"/>
<path d="M150.212 146.307C143.455 147.853 137.55 148.354 131.339 146.14C134.505 142.466 137.406 139.099 140.663 135.319C143.676 138.786 146.715 142.284 150.212 146.307Z" fill="white"/>
<path d="M52.7002 143.309C55.5838 139.781 58.1045 136.697 60.8012 133.398C63.9869 136.741 67.1992 140.114 70.5708 143.654C64.7991 145.052 58.9865 145.39 52.7002 143.309Z" fill="white"/>
<path d="M247.007 208.386C248.103 207.877 248.248 207.848 248.252 207.803C248.778 202.928 252.552 201.42 256.439 200.151C261.928 198.359 267.405 196.484 272.992 195.051C279.091 193.486 283.938 195.606 287.598 200.768C293.745 209.438 293.991 215.712 288.57 224.751C287.271 226.916 286.401 229.394 285.679 231.83C284.432 236.033 283.459 240.317 282.359 244.564C282.107 245.537 281.841 246.509 281.519 247.46C278.82 255.44 277.7 256.123 269.237 255.826C255.798 255.356 242.356 254.903 228.912 254.624C218.357 254.406 214.33 251.008 211.119 240.48C210.063 237.017 209.33 233.318 209.29 229.718C209.224 223.988 206.683 219.268 203.896 214.684C201.125 210.128 200.517 205.304 200.666 200.209C200.749 197.353 202.727 195.845 204.827 194.477C206.853 193.158 208.867 193.84 210.428 195.219C212.888 197.391 215.07 199.872 217.431 202.161C218.096 202.805 218.972 203.234 219.751 203.762C219.961 202.876 220.425 201.967 220.343 201.11C219.471 191.921 220.792 190.182 230.027 190.531C233.956 190.679 238.06 191.662 241.653 193.238C244.039 194.284 245.9 196.88 247.517 199.123C248.224 200.102 247.846 201.939 247.756 203.373C247.661 204.877 247.321 206.366 247.007 208.386Z" fill="white"/>
<path d="M154.176 202.269C154.746 201.442 155.164 200.433 155.911 199.819C160.499 196.045 164.8 191.75 169.878 188.778C179.091 183.386 187.726 185.916 193.904 194.623C196.486 198.261 197.632 202.098 197.234 206.469C196.126 218.633 192.227 229.811 185.455 240.026C183.525 242.938 181.182 244.059 177.588 243.632C163.784 241.995 149.953 240.57 136.125 239.137C131.956 238.704 128.911 236.488 127.227 232.978C124.784 227.892 122.323 222.685 120.942 217.26C119.125 210.117 118.221 202.73 117.233 195.405C117.037 193.952 117.831 191.949 118.858 190.816C126.964 181.874 142.538 182.963 149.517 192.873C150.237 193.896 150.59 195.178 151.074 196.355C151.829 198.191 152.55 200.04 153.286 201.882L154.176 202.269Z" fill="white"/>
<path d="M74.8522 190.397C78.693 187.608 82.8326 184.313 87.2598 181.458C93.7243 177.287 99.7317 177.934 105.309 183.279C111.344 189.063 114.653 195.738 112.499 204.463C110.446 212.774 107.32 220.444 101.479 226.853C99.2669 229.28 96.941 230.515 93.2661 229.515C77.6551 225.265 61.9643 221.301 46.2725 217.351C44.0461 216.789 42.8079 215.638 42.622 213.527C42.2535 209.353 41.7976 205.16 41.8651 200.982C41.9603 195.137 42.5534 189.302 42.82 183.458C42.8997 181.708 43.5614 181.061 45.3175 181.032C47.7962 180.992 50.3456 181.007 52.728 180.438C55.0484 179.882 57.3799 178.896 59.3772 177.599C62.1502 175.796 63.0952 175.565 65.1489 178.062C68.4874 182.123 71.6576 186.318 74.8522 190.397Z" fill="white"/>
<path d="M67.3848 177.323C74.3405 176.118 80.5825 176.958 87.484 178.972C82.9195 182.101 78.9249 184.84 74.9778 187.545C72.5689 184.303 70.1356 181.026 67.3848 177.323Z" fill="white"/>
<path d="M165.595 187.776C161.554 191.478 158.103 194.64 154.635 197.817C152.555 194.58 150.533 191.435 148.357 188.05C153.922 187.006 159.343 186.272 165.595 187.776Z" fill="white"/>
<path d="M262.272 195.457C258.406 197.256 254.851 199.05 251.152 200.469C250.648 200.663 249.126 199.143 248.624 198.146C248.232 197.366 248.292 195.706 248.843 195.23C251.825 192.663 258.537 192.79 262.272 195.457Z" fill="white"/>
<path d="M218.39 199.837C216.412 197.802 214.593 195.933 212.723 194.01C214.465 191.202 215.985 190.542 219.188 191.374C218.928 194.128 218.669 196.877 218.39 199.837Z" fill="white"/>
<path d="M876.32 207.744C876.031 206.162 875.644 204.587 875.486 202.992C875.368 201.814 875.2 200.452 875.655 199.435C878.317 193.477 883.668 191.286 889.627 190.604C892.858 190.233 896.21 190.865 899.503 191.091C901.746 191.244 902.799 192.726 902.925 194.729C903.068 197 902.843 199.291 902.888 201.57C902.901 202.314 903.262 203.051 903.462 203.791C904.198 203.376 905.076 203.101 905.645 202.526C907.895 200.247 909.911 197.724 912.287 195.589C913.92 194.121 916.028 192.991 918.344 194.378C920.763 195.825 922.799 197.561 922.843 200.768C922.91 205.62 922.29 210.297 919.485 214.407C915.477 220.28 914.321 226.899 913.576 233.795C913.152 237.721 911.79 241.624 910.353 245.349C908.135 251.096 903.72 254.219 897.433 254.422C881.222 254.95 865.011 255.503 848.797 255.822C847.405 255.85 845.274 254.537 844.702 253.294C842.802 249.171 841.175 244.874 839.966 240.5C838.139 233.898 836.932 227.163 832.677 221.42C830.534 218.527 830.463 214.908 830.993 211.365C831.711 206.575 834.131 202.633 837.187 199.002C840.158 195.472 844.009 194.058 848.528 194.719C856.795 195.932 864.56 198.767 871.97 202.508C873.057 203.056 873.644 204.649 874.359 205.82C874.764 206.485 874.957 207.276 875.245 208.011C875.604 207.922 875.962 207.833 876.32 207.744Z" fill="white"/>
<path d="M970.282 201.768C970.94 200.182 971.721 198.634 972.234 197.004C974.675 189.238 980.673 186.031 988.136 184.955C995.271 183.928 1001.21 186.368 1005.69 191.993C1006.3 192.763 1006.64 194.046 1006.54 195.033C1005.4 206.068 1003.63 216.982 999.317 227.314C998.475 229.333 997.444 231.297 996.29 233.159C994.281 236.401 991.608 238.716 987.537 239.148C976.452 240.323 965.381 241.62 954.304 242.835C951.189 243.177 948.039 243.246 944.948 243.716C942.063 244.155 939.949 243.072 938.697 240.739C935.634 235.031 932.123 229.427 930.067 223.356C927.985 217.202 926.623 210.564 926.385 204.086C925.931 191.746 939.944 182.847 951.406 187.614C957.763 190.259 962.759 194.69 967.375 199.609C968.119 200.401 968.706 201.338 969.364 202.208C969.669 202.062 969.976 201.915 970.282 201.768Z" fill="white"/>
<path d="M1048.65 190.407C1051.78 186.446 1055.22 182.232 1058.48 177.876C1059.93 175.935 1061.66 175.695 1063.14 177.166C1067.11 181.121 1072.16 180.966 1077.08 181.065C1079.68 181.118 1080.52 181.825 1080.59 184.461C1080.8 191.405 1081.49 198.336 1081.69 205.28C1081.78 208.167 1081.22 211.093 1080.76 213.971C1080.44 215.929 1079.21 216.966 1077.1 217.492C1061.04 221.496 1044.99 225.587 1028.99 229.827C1026.64 230.451 1025.06 229.771 1023.5 228.396C1018.46 223.959 1015.47 218.211 1013.16 212.078C1011.11 206.64 1009.71 201.078 1010.68 195.185C1011.69 189.015 1019.29 180.819 1025.34 179.295C1028.66 178.46 1031.85 178.8 1034.64 180.627C1039.52 183.823 1044.22 187.29 1048.65 190.407Z" fill="white"/>
<path d="M1056.23 177.182C1053.32 181.033 1050.87 184.287 1048.42 187.531C1044.47 184.825 1040.57 182.155 1036.17 179.132C1042.85 176.685 1049.21 176.335 1056.23 177.182Z" fill="white"/>
<path d="M957.939 187.82C964.136 186.192 969.57 187.102 975.183 188.004C973.008 191.353 970.977 194.483 968.818 197.807C965.369 194.641 961.93 191.484 957.939 187.82Z" fill="white"/>
<path d="M861.479 195.389C864.497 192.559 872.727 192.486 875.1 195.309C875.551 195.845 875.246 197.34 874.834 198.169C874.371 199.105 873.06 200.603 872.687 200.454C868.906 198.94 865.242 197.14 861.479 195.389Z" fill="white"/>
<path d="M904.278 191.395C907.537 190.639 908.307 190.937 910.889 193.759C909.034 195.533 907.183 197.302 905.353 199.05C905.039 196.804 904.671 194.193 904.278 191.395Z" fill="white"/>
</svg>
